<svg width="40" height="40" viewBox="0 0 40 40" fill="none" xmlns="http://www.w3.org/2000/svg">
<g clip-path="url(#clip0_417_715)">
<path fill-rule="evenodd" clip-rule="evenodd" d="M30.2397 10.4271C30.2397 16.0823 25.6552 20.6667 20.0001 20.6667C14.3449 20.6667 9.7605 16.0823 9.7605 10.4271C9.7605 4.77192 14.3449 0.1875 20.0001 0.1875C25.6552 0.1875 30.2397 4.77192 30.2397 10.4271ZM20.8533 8.57373C20.8533 9.12601 21.301 9.57373 21.8533 9.57373H25.1198C25.5911 9.57373 25.9731 9.95576 25.9731 10.427C25.9731 10.8983 25.5911 11.2803 25.1198 11.2803H22.1467C20.4899 11.2803 19.1467 9.93718 19.1467 8.28032V5.30724C19.1467 4.83597 19.5288 4.45394 20 4.45394C20.4713 4.45394 20.8533 4.83597 20.8533 5.30724V8.57373ZM13.8476 32.0756L13.846 32.0751C13.8085 32.0626 13.7679 32.0505 13.7246 32.0386C12.3617 31.662 8.22296 31.4787 6.67923 31.609C6.04619 31.6624 5.63798 31.7971 5.46549 32.0094C5.22599 32.4413 5.34343 35.1843 5.4067 36.6617L5.40679 36.6639C5.44798 37.6248 5.48355 38.4545 5.46332 38.9067C5.44263 39.4092 5.57455 39.7477 5.65141 39.7888L5.653 39.7887C5.65572 39.7887 5.66194 39.7885 5.67173 39.7869C6.703 39.6168 7.87954 38.924 9.12521 38.1904C10.3526 37.4677 11.6218 36.7203 12.8831 36.4063C13.1641 36.3363 13.4086 36.3075 13.6243 36.2822C14.04 36.2332 14.1837 36.2049 14.2943 36.0557L14.2958 36.0538C14.5316 35.7261 14.799 33.4814 14.7781 32.6537L14.7781 32.6535C14.7729 32.5123 14.7679 32.3754 13.8476 32.0756ZM8.19982 35.5131C7.82238 35.6643 7.39294 35.4747 7.24187 35.0973C7.08662 34.712 7.27625 34.2826 7.66151 34.1274C8.03896 33.9764 8.4683 34.1659 8.62355 34.5512C8.77462 34.9286 8.58916 35.3657 8.19982 35.5131ZM7.16541 30.7322C7.12885 30.7334 7.09301 30.7347 7.05808 30.736L7.0534 30.7362C7.04031 30.7366 7.02648 30.737 7.01416 30.7376C6.51622 27.2263 5.15568 25.9074 3.83832 24.6306L3.83815 24.6304C2.94149 23.7612 2.01427 22.8625 1.29244 21.2184C0.797768 20.0957 0.55542 17.0314 0.716018 13.9323C0.907555 10.2371 1.56319 8.30263 2.09044 8.06944C2.31374 7.97136 2.54728 7.97708 2.8046 8.08723C3.4117 8.34691 4.00618 9.14037 4.23083 9.75907C4.88611 11.5401 4.88221 14.746 4.50503 16.7508C4.39098 16.9177 4.32465 17.0869 4.28763 17.2361C3.88678 18.8505 5.91148 21.2788 7.72016 23.214C7.79265 23.2915 7.85426 23.3575 7.90253 23.41C7.98637 23.5013 8.10087 23.5477 8.21583 23.5477C8.31854 23.5477 8.42161 23.5108 8.50318 23.4358C8.67621 23.277 8.68764 23.0081 8.52886 22.8352C8.48382 22.786 8.42751 22.7257 8.36174 22.6553L8.3616 22.6552L8.34131 22.6335C5.39113 19.4769 4.95733 18.0676 5.11285 17.4411C5.1319 17.3642 5.16647 17.2712 5.24514 17.1777C5.25115 17.1703 5.25768 17.163 5.26425 17.1557L5.26628 17.1535C5.35638 17.0562 5.49747 16.9597 5.72367 16.8814L5.72584 16.8806C6.09458 16.7525 6.55823 16.8289 7.10362 17.1077C9.5164 18.3415 12.7445 23.2417 13.3084 25.1254L13.3089 25.1273C13.7607 26.6124 13.6593 29.068 13.5853 30.8613L13.5852 30.8618L13.5742 31.1318C13.474 31.1116 13.3667 31.0922 13.2547 31.0735L13.2186 31.0676C13.0875 31.0461 12.9494 31.0257 12.8049 31.0063L12.7703 31.0017C12.6997 30.9922 12.6279 30.9831 12.5546 30.9742L12.5485 30.9735C12.4709 30.964 12.3919 30.955 12.3118 30.9462L12.2815 30.9428C12.2057 30.9345 12.1291 30.9265 12.0513 30.9187L12.0385 30.9173C11.955 30.909 11.8706 30.901 11.7852 30.8932L11.7619 30.8911C11.6812 30.8838 11.5998 30.8767 11.5177 30.8698L11.5002 30.8684C11.4122 30.8611 11.3234 30.8541 11.2341 30.8474L11.2212 30.8464C11.1361 30.8401 11.0505 30.8339 10.9646 30.8281L10.9423 30.8265C10.7622 30.8142 10.5805 30.8031 10.3987 30.793L10.3756 30.7916C10.1941 30.7817 10.0125 30.7729 9.83224 30.765L9.80792 30.7639C9.62809 30.7561 9.44971 30.7493 9.27387 30.7437L9.24892 30.7429C9.07407 30.7375 8.90204 30.733 8.73383 30.7296L8.70652 30.729C8.53984 30.7257 8.37715 30.7235 8.21991 30.7222L8.19224 30.722C8.11557 30.7215 8.03999 30.7211 7.96613 30.7211H7.96332L7.943 30.721L7.88263 30.7213L7.8577 30.7214L7.83702 30.7215H7.83648C7.79546 30.7216 7.7541 30.7217 7.71417 30.722L7.59875 30.7232L7.48198 30.7248C7.44542 30.7253 7.41012 30.7261 7.37464 30.7269C7.33681 30.7276 7.29924 30.7284 7.26286 30.7294L7.16541 30.7322ZM35.5918 32.4779C35.4271 32.2863 35.039 32.1711 34.4395 32.1375H34.4394C34.3941 32.135 34.3463 32.1327 34.2966 32.131C34.2836 32.1304 34.2698 32.13 34.2561 32.1297L34.2354 32.1291C34.221 32.1286 34.2067 32.1281 34.1922 32.1277C34.1754 32.1273 34.1584 32.1268 34.141 32.1264L34.1051 32.1258L34.062 32.1251L33.9739 32.1238C33.944 32.1235 33.913 32.1234 33.8819 32.1233C33.8707 32.1233 33.8594 32.1233 33.8482 32.1232C33.8309 32.1232 33.8136 32.1232 33.796 32.1232C33.7637 32.1232 33.7306 32.1234 33.6974 32.1236L33.6115 32.1245C33.5878 32.1247 33.564 32.125 33.5399 32.1254C33.5274 32.1255 33.5149 32.1258 33.5023 32.126C33.4751 32.1263 33.4475 32.127 33.4199 32.1274L33.2993 32.13L33.2256 32.1319L33.1773 32.1332C33.1479 32.134 33.1183 32.1348 33.0884 32.1358L33.0437 32.1373C32.7976 32.1454 32.5381 32.1567 32.2705 32.1712C32.2555 32.1721 32.2406 32.1728 32.2254 32.1735L32.1543 32.1775L32.0522 32.1835L31.9929 32.187L31.8224 32.1976L31.7592 32.2018L31.7031 32.2056L31.5857 32.2136L31.5287 32.2177C31.4684 32.2221 31.4081 32.2264 31.3476 32.2309L31.3038 32.2343C31.0217 32.2559 30.7388 32.2803 30.4608 32.3071L30.4234 32.3107C30.3681 32.3161 30.3132 32.3216 30.2584 32.3272L30.1866 32.3346L30.0369 32.3504L29.9525 32.3597L29.8128 32.3756L29.7228 32.386C29.6784 32.3913 29.634 32.3965 29.5902 32.402L29.4986 32.4133C29.4561 32.4187 29.4137 32.424 29.372 32.4295L29.2791 32.4419L29.2372 32.4476C29.2209 32.4497 29.2047 32.4519 29.1886 32.4541C29.1789 32.4555 29.1693 32.4568 29.1597 32.4581L29.105 32.466L29.0616 32.4722C29.0034 32.4806 28.9462 32.4892 28.89 32.4977C28.8482 32.5041 28.806 32.5105 28.7652 32.517L28.761 32.5177C28.7455 32.5203 28.7303 32.5228 28.7152 32.5253C28.7033 32.5273 28.6915 32.5293 28.6797 32.5314C28.6445 32.5371 28.6092 32.543 28.575 32.5489L28.5253 32.5577L28.492 32.5638L28.3946 32.5815C28.3678 32.5867 28.3421 32.5917 28.3162 32.5969C28.2893 32.6021 28.2627 32.6075 28.2366 32.6128L28.2365 32.6128L28.2249 32.6152C28.2003 32.6203 28.1763 32.6254 28.1525 32.6305C28.1228 32.6369 28.0939 32.6435 28.0655 32.65L28.0513 32.6533L28.0509 32.6534C28.0341 32.6572 28.0174 32.6611 28.0012 32.665C27.9725 32.6719 27.9452 32.6788 27.9182 32.6858C27.912 32.6874 27.9057 32.689 27.8994 32.6906C27.8869 32.6938 27.8745 32.697 27.8626 32.7003C27.8447 32.7052 27.8276 32.71 27.8107 32.7149C27.8017 32.7175 27.7927 32.7201 27.7837 32.7227L27.7801 32.7238L27.7602 32.7296C27.7527 32.7318 27.7452 32.7339 27.7381 32.7361C27.699 32.7481 27.6622 32.7603 27.6283 32.7725C26.77 33.0789 26.7692 33.2028 26.7685 33.334C26.7706 34.1126 27.0834 36.2357 27.3151 36.5468L27.3162 36.5482C27.4209 36.6812 27.5562 36.7037 27.9474 36.7387L27.9478 36.7387C28.1546 36.7572 28.389 36.7782 28.6597 36.8376C29.8733 37.1039 31.1043 37.783 32.2948 38.4398L32.2957 38.4403C33.5008 39.105 34.6391 39.7329 35.6232 39.867C35.6276 39.8676 35.6307 39.8679 35.6332 39.8679C35.7015 39.8108 35.8065 39.4894 35.7753 39.0418C35.7439 38.6126 35.7557 37.8215 35.7692 36.9056L35.7692 36.9052L35.7693 36.9022L35.7694 36.8957V36.8957C35.7899 35.491 35.8279 32.8914 35.5918 32.4779ZM33.9974 35.458C33.8634 35.8219 33.4593 36.0141 33.0955 35.8801C32.7204 35.7499 32.5319 35.3382 32.6658 34.9744C32.8035 34.603 33.2077 34.4109 33.5715 34.5447C33.9428 34.6824 34.135 35.0866 33.9974 35.458ZM38.176 9.57368C38.6805 9.7801 39.3511 11.6004 39.6319 15.1093C39.8678 18.0566 39.7193 20.9801 39.2789 22.0617C38.6367 23.6439 37.7784 24.524 36.9484 25.375L36.9477 25.3758L36.9477 25.3758C35.726 26.6283 34.4642 27.9221 34.0804 31.2761L34.0534 31.276C34.0274 31.2757 34.0012 31.2755 33.9744 31.2753C33.9369 31.2751 33.8983 31.275 33.8593 31.2751L33.8123 31.2752C32.778 31.2791 31.2004 31.3679 29.8172 31.5217L29.8153 31.522C29.7325 31.5313 29.6505 31.5408 29.5692 31.5504C29.5635 31.551 29.558 31.5517 29.5524 31.5523C29.3874 31.5721 29.2259 31.5929 29.0695 31.6144L29.0282 31.6203C28.9695 31.6284 28.9116 31.6367 28.8544 31.6452L28.7783 31.6567L28.6452 31.6774L28.5619 31.6909C28.5198 31.6978 28.4789 31.7048 28.438 31.7118L28.4371 31.712C28.4271 31.7137 28.417 31.7155 28.4069 31.7172C28.3913 31.7199 28.3757 31.7225 28.3604 31.7253C28.2994 31.7361 28.2397 31.7472 28.1815 31.7585C28.1576 31.7629 28.1351 31.7677 28.1118 31.7723C28.0859 31.7775 28.0601 31.7827 28.0347 31.788C28.0242 31.7902 28.0136 31.7924 28.0032 31.7946C27.9774 31.8 27.9523 31.8055 27.9272 31.8111C27.9092 31.8151 27.8905 31.8189 27.8731 31.8229C27.8713 31.797 27.8695 31.771 27.8677 31.7448C27.8642 31.6933 27.8606 31.6412 27.8568 31.5886L27.8567 31.5879C27.7383 29.8819 27.5762 27.5459 27.9661 26.1215L27.9667 26.1197C28.4532 24.3116 31.3942 19.5616 33.6572 18.3231C34.0199 18.1245 34.3453 18.0246 34.6307 18.0246C34.7442 18.0246 34.8514 18.0403 34.952 18.0721C35.1671 18.14 35.3019 18.2269 35.3881 18.3157L35.3985 18.3271C35.4793 18.4143 35.515 18.5025 35.5352 18.5754C35.699 19.1637 35.3229 20.5117 32.6009 23.593C32.532 23.6711 32.4735 23.7375 32.4275 23.7904C32.2737 23.9678 32.2927 24.2362 32.47 24.39C32.5504 24.4598 32.6497 24.494 32.7485 24.494C32.8673 24.494 32.9856 24.4444 33.0697 24.3475C33.1062 24.3054 33.1509 24.2547 33.2027 24.1961C33.2142 24.183 33.226 24.1696 33.2382 24.1558C34.9137 22.259 36.7823 19.8846 36.3544 18.3474C36.3147 18.2052 36.2469 18.0446 36.1335 17.8874C35.7216 15.9888 35.6326 12.9408 36.2088 11.2283C36.4044 10.6381 36.9456 9.87128 37.5125 9.60979C37.7496 9.50046 37.9669 9.48884 38.176 9.57368Z" fill="url(#paint0_linear_417_715)"/>
</g>
<defs>
<linearGradient id="paint0_linear_417_715" x1="6.66675" y1="3.33333" x2="29.3141" y2="43.6854" gradientUnits="userSpaceOnUse">
<stop stop-color="#7D7AFF"/>
<stop offset="1" stop-color="#7BFFDF"/>
</linearGradient>
<clipPath id="clip0_417_715">
<rect width="40" height="40" fill="white"/>
</clipPath>
</defs>
</svg>
