<svg width="40" height="40" viewBox="0 0 40 40" fill="none" xmlns="http://www.w3.org/2000/svg">
<path fill-rule="evenodd" clip-rule="evenodd" d="M37.5463 7.98199L30.7793 1.79236C30.4598 1.49718 30.0409 1.33325 29.6059 1.33325C29.1709 1.33325 28.752 1.49718 28.4325 1.79236L21.6656 7.98199C21.4486 8.18039 21.2966 8.43972 21.2296 8.72599C21.1626 9.01226 21.1837 9.31209 21.2901 9.58617C21.3964 9.86026 21.5832 10.0958 21.8257 10.2619C22.0683 10.428 22.3554 10.517 22.6494 10.5171H25.3356C25.416 10.5172 25.4931 10.5492 25.55 10.606C25.6068 10.6629 25.6388 10.74 25.6389 10.8204V28.8926C25.6393 29.2714 25.79 29.6346 26.0579 29.9025C26.3258 30.1703 26.689 30.3209 27.0678 30.3213H31.9946C32.3733 30.3209 32.7365 30.1703 33.0044 29.9025C33.2722 29.6347 33.4229 29.2716 33.4234 28.8928V10.8204C33.4235 10.74 33.4555 10.6629 33.5123 10.606C33.5692 10.5491 33.6463 10.5172 33.7267 10.5171H36.5624C36.8564 10.517 37.1436 10.428 37.3861 10.2619C37.6287 10.0958 37.8154 9.86026 37.9218 9.58617C38.0282 9.31209 38.0492 9.01226 37.9822 8.72599C37.9152 8.43972 37.7633 8.18039 37.5463 7.98199ZM32.7983 35.9671H26.264C25.9739 35.9671 25.6957 36.0824 25.4906 36.2875C25.2855 36.4926 25.1702 36.7708 25.1702 37.0609C25.1702 37.3509 25.2855 37.6291 25.4906 37.8343C25.6957 38.0394 25.9739 38.1546 26.264 38.1546H32.7983C33.0884 38.1546 33.3666 38.0394 33.5717 37.8343C33.7768 37.6291 33.8921 37.3509 33.8921 37.0609C33.8921 36.7708 33.7768 36.4926 33.5717 36.2875C33.3666 36.0824 33.0884 35.9671 32.7983 35.9671ZM26.264 32.5122H32.7983C33.0884 32.5122 33.3666 32.6274 33.5717 32.8326C33.7768 33.0377 33.8921 33.3159 33.8921 33.606C33.8921 33.896 33.7768 34.1742 33.5717 34.3794C33.3666 34.5845 33.0884 34.6997 32.7983 34.6997H26.264C25.9739 34.6997 25.6957 34.5845 25.4906 34.3794C25.2855 34.1742 25.1702 33.896 25.1702 33.606C25.1702 33.3159 25.2855 33.0377 25.4906 32.8326C25.6957 32.6274 25.9739 32.5122 26.264 32.5122ZM8.24394 23.5098H3.5405C2.68971 23.5098 2 24.1996 2 25.0503V36.7703C2 37.6211 2.68971 38.3108 3.5405 38.3108H8.24394C9.09473 38.3108 9.78444 37.6211 9.78444 36.7703V25.0503C9.78444 24.1996 9.09473 23.5098 8.24394 23.5098ZM19.4927 16.579H14.789C14.5867 16.579 14.3864 16.6188 14.1995 16.6962C14.0126 16.7736 13.8428 16.887 13.6998 17.0301C13.5567 17.1731 13.4432 17.3429 13.3658 17.5298C13.2884 17.7167 13.2485 17.917 13.2485 18.1193V36.7704C13.2485 37.179 13.4108 37.5708 13.6997 37.8597C13.9886 38.1486 14.3805 38.3109 14.789 38.3109H19.4927C19.9013 38.3109 20.2931 38.1486 20.582 37.8597C20.8709 37.5708 21.0332 37.179 21.0332 36.7704V18.1195C21.0332 17.711 20.8709 17.3191 20.582 17.0302C20.2931 16.7413 19.9013 16.579 19.4927 16.579Z" fill="url(#paint0_linear_417_696)"/>
<defs>
<linearGradient id="paint0_linear_417_696" x1="7.53077" y1="4.26482" x2="28.7547" y2="41.6711" gradientUnits="userSpaceOnUse">
<stop stop-color="#FF5353"/>
<stop offset="1" stop-color="#FFBA7B"/>
</linearGradient>
</defs>
</svg>
