<svg width="40" height="40" viewBox="0 0 40 40" fill="none" xmlns="http://www.w3.org/2000/svg">
<path fill-rule="evenodd" clip-rule="evenodd" d="M29.434 3.42871V8.1731H15.698H8.44645V3.42871H29.434ZM16.1276 13.8072H35.3259H37.1145V9.06356H29.8635H16.1276V13.8072ZM34.8964 14.6978V19.4413H33.0499H11.2031H10.5373V14.6978H15.698H34.8964ZM12.5378 20.4394L12.4814 20.4096L12.3425 20.3381L12.3286 20.3314H32.6204V25.0749H16.638C16.6247 25.0411 16.6114 25.0077 16.5985 24.9763L16.5739 24.9149C16.5529 24.8645 16.5313 24.8141 16.5095 24.7637L16.4839 24.7051C16.463 24.6585 16.4415 24.6113 16.4188 24.5623L16.3986 24.5193C16.3766 24.4721 16.3536 24.4248 16.3306 24.3782L16.3087 24.3338C16.2955 24.307 16.2818 24.2802 16.2682 24.2536L16.2682 24.2535L16.2682 24.2535L16.2631 24.2435L16.1817 24.0883L16.1808 24.0866L16.1807 24.0864L16.1806 24.0862C16.1614 24.0509 16.1422 24.0155 16.1249 23.9849L16.0947 23.9306C16.071 23.8881 16.0465 23.8454 16.0202 23.7999L15.8842 23.576C15.8546 23.5281 15.8248 23.4811 15.7959 23.437L15.7617 23.3844C15.7307 23.3372 15.699 23.2907 15.663 23.2381L15.644 23.2113C15.6139 23.1678 15.5835 23.1242 15.5548 23.0851L15.5275 23.0471C15.495 23.0029 15.4625 22.9586 15.4277 22.9121L15.3909 22.8638L15.3865 22.8582L15.3864 22.858L15.3863 22.8579L15.3861 22.8577C15.3545 22.8169 15.3226 22.7759 15.2897 22.7345L15.2539 22.6895L15.2444 22.678L15.2444 22.6779C15.2137 22.6406 15.1831 22.6035 15.1536 22.5683L15.1278 22.5371C15.0928 22.4958 15.0572 22.4545 15.0231 22.4159L14.9917 22.3799C14.9556 22.339 14.9186 22.298 14.8796 22.2553L14.8358 22.2082C14.8082 22.1786 14.7801 22.1488 14.7518 22.1191L14.6895 22.0544C14.6625 22.0271 14.6353 22 14.608 21.9728L14.6079 21.9727L14.5659 21.9302L14.5607 21.9249L14.5549 21.9193L14.5548 21.9192L14.5431 21.9081C14.5061 21.8724 14.469 21.8368 14.4314 21.8018L14.4017 21.773L14.394 21.766C14.3531 21.7283 14.3118 21.6904 14.2736 21.6567L14.2018 21.5923C14.1688 21.5633 14.1359 21.5344 14.0996 21.5031L13.9193 21.3538C13.8793 21.3212 13.8387 21.2893 13.7961 21.256L13.787 21.2489L13.7433 21.2152C13.6986 21.1808 13.653 21.1465 13.6092 21.1149L13.5703 21.0865C13.5273 21.0543 13.4836 21.023 13.4403 20.9931L13.3998 20.9649C13.3669 20.9421 13.3341 20.9198 13.3014 20.8976L13.2322 20.8515C13.1832 20.8193 13.1342 20.7879 13.0854 20.7573L13.0165 20.7144C12.976 20.6893 12.9352 20.6641 12.8956 20.6411L12.8641 20.6226C12.8144 20.593 12.7643 20.5642 12.7168 20.5371L12.7047 20.5301L12.697 20.5258C12.6507 20.5001 12.6037 20.4748 12.5572 20.4499L12.5378 20.4394ZM33.0498 25.9661H16.9354C16.9736 26.104 17.0075 26.2431 17.0394 26.3827L17.057 26.4618C17.0694 26.5183 17.0816 26.5747 17.0929 26.6313C17.0976 26.6547 17.1019 26.6782 17.1062 26.7017L17.1124 26.7355C17.128 26.819 17.1427 26.9028 17.156 26.9869C17.1635 27.0336 17.1708 27.0804 17.1775 27.1275C17.1835 27.1701 17.1894 27.2127 17.1948 27.2556C17.2023 27.3135 17.209 27.3717 17.2154 27.43L17.2188 27.459C17.2213 27.4811 17.2239 27.5032 17.2261 27.5253C17.2348 27.6131 17.242 27.7013 17.2482 27.7896C17.2489 27.7995 17.2496 27.8093 17.2502 27.8192C17.2508 27.8291 17.2514 27.839 17.252 27.8489L17.252 27.8489L17.2537 27.8782C17.2579 27.9461 17.2614 28.0143 17.264 28.0824L17.2648 28.1038C17.2657 28.1255 17.2665 28.1473 17.2672 28.1692C17.2701 28.263 17.2719 28.3572 17.2719 28.4516C17.2719 28.5397 17.2703 28.6274 17.268 28.7148C17.2674 28.732 17.2668 28.7492 17.2661 28.7663L17.2648 28.7974C17.2626 28.8581 17.26 28.9185 17.2565 28.9787C17.2548 29.0102 17.2528 29.0418 17.2507 29.0733C17.2469 29.1317 17.2423 29.19 17.2373 29.2482L17.236 29.2638L17.236 29.2639C17.234 29.2885 17.232 29.3132 17.2296 29.3377C17.2228 29.4093 17.2151 29.4805 17.2067 29.5515L17.2039 29.5761L17.201 29.6012C17.1909 29.6827 17.1796 29.7639 17.1673 29.8448C17.1634 29.8705 17.1592 29.8962 17.155 29.922L17.1504 29.9498C17.1424 29.9984 17.1344 30.0469 17.1257 30.0953C17.1184 30.1358 17.1108 30.1764 17.103 30.217C17.095 30.2585 17.0866 30.2998 17.0781 30.341L17.0754 30.3539C17.0671 30.3938 17.0589 30.4336 17.0501 30.4733L17.0431 30.504L17.0373 30.5283L17.0296 30.561L17.0188 30.608C17.0111 30.642 17.0033 30.6759 16.9949 30.7097H34.2217H39.3334V25.9662H33.0498V25.9661ZM16.6205 31.865C16.6424 31.81 16.664 31.7548 16.6849 31.6993C16.6906 31.6839 16.6966 31.6687 16.7027 31.6535L16.7027 31.6535L16.7027 31.6535C16.7097 31.6358 16.7167 31.6182 16.7232 31.6004H33.7922V36.344H12.8052V36.3149C13.0647 36.1643 13.315 35.9986 13.5574 35.8218C13.5956 35.794 13.6335 35.7657 13.6711 35.7373C13.7278 35.6946 13.7841 35.6515 13.8397 35.6074C13.9036 35.5568 13.9668 35.5056 14.0292 35.4532L14.0527 35.4338L14.0528 35.4337C14.064 35.4245 14.0752 35.4153 14.0863 35.4058C14.1766 35.329 14.265 35.25 14.3522 35.1696L14.3594 35.163L14.3688 35.1543C15.0307 34.5409 15.6013 33.8247 16.0574 33.0308L16.0625 33.0217C16.1231 32.916 16.1817 32.809 16.2382 32.7005L16.2542 32.6694L16.2645 32.6492C16.3146 32.5516 16.3634 32.4531 16.4101 32.3533C16.4189 32.3346 16.4273 32.3157 16.4358 32.2968L16.4519 32.2611C16.4827 32.193 16.5129 32.1246 16.5421 32.0556C16.5691 31.9925 16.5951 31.9288 16.6205 31.865ZM7.46143 26.1923C7.46143 25.9765 7.52231 25.7794 7.64702 25.6004C7.77108 25.4205 7.93741 25.2925 8.15051 25.2145V27.1509C7.91724 27.0478 7.74284 26.9102 7.63024 26.7422C7.51699 26.5727 7.46143 26.3887 7.46143 26.1923ZM8.93929 31.1729V28.9822C9.26701 29.0796 9.5023 29.2172 9.64452 29.399C9.7894 29.5782 9.86101 29.7939 9.86101 30.0422C9.86101 30.323 9.77592 30.5657 9.60353 30.7719C9.43334 30.9779 9.21135 31.1121 8.93929 31.1729ZM13.1956 34.995C13.161 35.0213 13.1262 35.0477 13.0912 35.0735C13.0341 35.1154 12.9762 35.1561 12.9181 35.1967C12.8278 35.2593 12.7362 35.32 12.6434 35.3786L12.6149 35.3968C11.4254 36.142 10.0301 36.5716 8.53952 36.5716C4.19841 36.5716 0.666504 32.9289 0.666504 28.4517C0.666504 23.9744 4.19841 20.332 8.53952 20.332C11.9908 20.332 14.9304 22.6343 15.9905 25.8279L16.0052 25.8724C16.0362 25.9678 16.0654 26.0641 16.0931 26.161C16.102 26.1928 16.1113 26.2245 16.1199 26.2564C16.1344 26.3096 16.1485 26.3628 16.162 26.4163C16.18 26.4883 16.1971 26.5605 16.2132 26.6329C16.2232 26.6777 16.2325 26.7228 16.2418 26.7678C16.2564 26.8394 16.2703 26.9111 16.2831 26.983C16.2906 27.0246 16.2974 27.0665 16.3041 27.1083C16.316 27.1816 16.327 27.2551 16.3369 27.3287C16.3388 27.343 16.3408 27.3573 16.3428 27.3716C16.3446 27.385 16.3465 27.3983 16.3482 27.4116C16.3599 27.5064 16.3697 27.6015 16.3782 27.6969L16.3797 27.7138C16.3815 27.7343 16.3834 27.7548 16.385 27.7753C16.3929 27.874 16.3992 27.9731 16.4037 28.0725L16.4057 28.131C16.4098 28.2376 16.4124 28.3445 16.4124 28.4516C16.4124 28.5488 16.4102 28.6458 16.4068 28.7429L16.4044 28.8095C16.4003 28.9041 16.3952 28.9982 16.388 29.0921C16.3874 29.1009 16.3866 29.1096 16.3858 29.1184C16.3851 29.1254 16.3845 29.1325 16.3839 29.1396C16.3772 29.2217 16.3692 29.3038 16.3601 29.3856C16.3576 29.4083 16.3552 29.4312 16.3525 29.4539C16.3418 29.5427 16.3296 29.6312 16.3162 29.7195C16.3135 29.738 16.3104 29.7565 16.3074 29.775C16.3058 29.7845 16.3043 29.794 16.3028 29.8035C16.2912 29.8738 16.2788 29.9441 16.2655 30.014C16.2596 30.0461 16.2535 30.0782 16.2471 30.1101C16.2325 30.1827 16.2166 30.255 16.2001 30.3274C16.1907 30.3677 16.1813 30.408 16.1715 30.4481C16.1581 30.5023 16.1438 30.5565 16.1295 30.6106C16.1112 30.6788 16.0921 30.7467 16.0722 30.8142C16.0637 30.8432 16.0551 30.8719 16.0463 30.9007C16.0251 30.9695 16.003 31.0379 15.9801 31.1059C15.9595 31.1675 15.938 31.2288 15.9158 31.2899C15.8953 31.3466 15.8742 31.403 15.8525 31.4591C15.8254 31.5288 15.7973 31.5979 15.7685 31.6666C15.752 31.7058 15.7357 31.7451 15.7187 31.7839C15.6798 31.8723 15.6394 31.9599 15.5975 32.0465L15.592 32.0579C15.5819 32.079 15.5718 32.1001 15.5614 32.1211C15.5115 32.222 15.4597 32.3219 15.4057 32.4205C15.4041 32.4236 15.4024 32.4266 15.4008 32.4297C15.3975 32.4358 15.3942 32.4419 15.3909 32.4479C14.9587 33.2303 14.401 33.9379 13.747 34.536L13.7253 34.5559C13.6454 34.6283 13.5637 34.6986 13.481 34.7679C13.4737 34.774 13.4664 34.7801 13.4591 34.7861C13.4447 34.7982 13.4303 34.8102 13.4158 34.8221C13.3467 34.8786 13.2763 34.9334 13.2055 34.9875L13.1956 34.995ZM8.93903 32.4108C9.64829 32.296 10.1999 32.0097 10.5975 31.5471C10.9958 31.0851 11.1942 30.518 11.1942 29.8439C11.1942 29.2402 11.0366 28.7458 10.7203 28.3599C10.405 27.976 9.81114 27.6613 8.93912 27.4207V25.2373C9.29105 25.3944 9.50955 25.6917 9.59465 26.1308L10.9717 25.9476C10.8773 25.388 10.6585 24.9413 10.318 24.6072C9.97546 24.2731 9.51698 24.0706 8.93912 24V23.4495H8.15064V24C7.53188 24.0629 7.03783 24.3016 6.66573 24.7179C6.29363 25.1321 6.10667 25.6459 6.10667 26.2573C6.10667 26.8602 6.27144 27.3729 6.60072 27.7966C6.92844 28.2185 7.44532 28.5338 8.15055 28.7413V31.0816C7.95624 30.9841 7.77982 30.8292 7.6211 30.6133C7.46146 30.3976 7.35207 30.1418 7.29522 29.8436L5.88477 30.0159C5.99333 30.7434 6.24137 31.3084 6.63226 31.7074C7.02297 32.1066 7.5284 32.3437 8.15055 32.4219V33.453H8.93903V32.4108Z" fill="url(#paint0_linear_417_703)"/>
<defs>
<linearGradient id="paint0_linear_417_703" x1="6.6036" y1="6.05626" x2="23.7516" y2="42.253" gradientUnits="userSpaceOnUse">
<stop stop-color="#53CBFF"/>
<stop offset="1" stop-color="#FFA0F6"/>
</linearGradient>
</defs>
</svg>
