<svg width="24" height="24" viewBox="0 0 24 24" fill="none" xmlns="http://www.w3.org/2000/svg">
<path d="M5.83725 5.1195L12 3.75L18.1627 5.1195C18.3293 5.15652 18.4782 5.24922 18.585 5.3823C18.6918 5.51538 18.75 5.68089 18.75 5.8515V13.3417C18.7499 14.0826 18.567 14.8119 18.2174 15.465C17.8678 16.1181 17.3624 16.6749 16.746 17.0858L12 20.25L7.254 17.0858C6.63771 16.6749 6.13235 16.1183 5.78276 15.4653C5.43318 14.8124 5.25018 14.0832 5.25 13.3425V5.8515C5.25003 5.68089 5.30823 5.51538 5.41499 5.3823C5.52176 5.24922 5.6707 5.15652 5.83725 5.1195ZM12.75 10.5V6.75L9 12H11.25V15.75L15 10.5H12.75Z" fill="#F0F0F0"/>
</svg>
