<svg width="34" height="34" viewBox="0 0 34 34" fill="none" xmlns="http://www.w3.org/2000/svg">
<path d="M15.5833 24.0833C15.5833 25.5862 14.9863 27.0275 13.9236 28.0902C12.8609 29.1529 11.4196 29.7499 9.91667 29.7499C8.41377 29.7499 6.97243 29.1529 5.90973 28.0902C4.84702 27.0275 4.25 25.5862 4.25 24.0833V7.08327C4.25 6.33183 4.54851 5.61116 5.07986 5.0798C5.61122 4.54845 6.33189 4.24994 7.08333 4.24994H12.75C13.5014 4.24994 14.2221 4.54845 14.7535 5.0798C15.2848 5.61116 15.5833 6.33183 15.5833 7.08327V24.0833Z" stroke="#FF5F3F" stroke-width="2" stroke-linecap="round" stroke-linejoin="round"/>
<path d="M23.6587 18.4165H26.917C27.6684 18.4165 28.3891 18.715 28.9205 19.2464C29.4518 19.7777 29.7503 20.4984 29.7503 21.2498V26.9165C29.7503 27.668 29.4518 28.3886 28.9205 28.92C28.3891 29.4513 27.6684 29.7498 26.917 29.7498H9.91699" stroke="#FF5F3F" stroke-width="2" stroke-linecap="round" stroke-linejoin="round"/>
<path d="M9.91699 24.0833H9.93116" stroke="#FF5F3F" stroke-width="2" stroke-linecap="round" stroke-linejoin="round"/>
<path d="M15.5837 11.3333L18.8421 8.07498C19.1584 7.75753 19.5344 7.50575 19.9484 7.33413C20.3624 7.16251 20.8062 7.07443 21.2544 7.07495C21.7026 7.07548 22.1462 7.1646 22.5598 7.3372C22.9734 7.50979 23.3488 7.76245 23.6644 8.08065L26.3504 10.7666C26.6771 11.0809 26.9376 11.4573 27.1167 11.8737C27.2958 12.29 27.3898 12.738 27.3933 13.1913C27.3967 13.6446 27.3095 14.0939 27.1367 14.513C26.9639 14.9321 26.7091 15.3123 26.3872 15.6315L14.0254 28.05" stroke="#FF5F3F" stroke-width="2" stroke-linecap="round" stroke-linejoin="round"/>
</svg>
