<svg width="34" height="34" viewBox="0 0 34 34" fill="none" xmlns="http://www.w3.org/2000/svg">
<path d="M21.25 7.08331L26.9167 12.75" stroke="#FF5F3F" stroke-width="2" stroke-linecap="round" stroke-linejoin="round"/>
<path d="M18.4169 9.91665L12.3252 3.82498C11.6854 3.18827 10.8195 2.83083 9.91687 2.83083C9.01424 2.83083 8.14834 3.18827 7.50854 3.82498L3.82521 7.50831C3.1885 8.14811 2.83105 9.01401 2.83105 9.91665C2.83105 10.8193 3.1885 11.6852 3.82521 12.325L9.91687 18.4166" stroke="#FF5F3F" stroke-width="2" stroke-linecap="round" stroke-linejoin="round"/>
<path d="M11.334 8.50002L14.1673 5.66669" stroke="#FF5F3F" stroke-width="2" stroke-linecap="round" stroke-linejoin="round"/>
<path d="M2.83398 31.1667L10.6257 29.0417L29.9915 9.67584C30.7429 8.9244 31.1651 7.90522 31.1651 6.84251C31.1651 5.7798 30.7429 4.76062 29.9915 4.00918C29.24 3.25773 28.2209 2.83557 27.1582 2.83557C26.0954 2.83557 25.0763 3.25773 24.3248 4.00918L4.95898 23.375L2.83398 31.1667Z" stroke="#FF5F3F" stroke-width="2" stroke-linecap="round" stroke-linejoin="round"/>
<path d="M25.5 22.6666L28.3333 19.8333" stroke="#FF5F3F" stroke-width="2" stroke-linecap="round" stroke-linejoin="round"/>
<path d="M24.084 15.5833L30.1757 21.675C31.5073 23.0066 31.5073 25.16 30.1757 26.4916L26.4923 30.175C25.1607 31.5066 23.0073 31.5066 21.6757 30.175L15.584 24.0833" stroke="#FF5F3F" stroke-width="2" stroke-linecap="round" stroke-linejoin="round"/>
</svg>
