<svg width="34" height="34" viewBox="0 0 34 34" fill="none" xmlns="http://www.w3.org/2000/svg">
<path d="M17.001 11.3333C24.0426 11.3333 29.751 9.43046 29.751 7.08325C29.751 4.73604 24.0426 2.83325 17.001 2.83325C9.95935 2.83325 4.25098 4.73604 4.25098 7.08325C4.25098 9.43046 9.95935 11.3333 17.001 11.3333Z" stroke="#FF5F3F" stroke-width="2" stroke-linecap="round" stroke-linejoin="round"/>
<path d="M4.25107 7.08325V26.9166C4.24318 27.5979 4.72679 28.2698 5.66112 28.8758C6.59546 29.4817 7.95314 30.0039 9.61972 30.3984C11.2863 30.7928 13.2129 31.0479 15.2372 31.1421C17.2615 31.2364 19.324 31.167 21.2511 30.9399" stroke="#FF5F3F" stroke-width="2" stroke-linecap="round" stroke-linejoin="round"/>
<path d="M29.751 7.08325V11.3333" stroke="#FF5F3F" stroke-width="2" stroke-linecap="round" stroke-linejoin="round"/>
<path d="M29.751 16.9999L25.501 24.0832H31.1676L26.9176 31.1665" stroke="#FF5F3F" stroke-width="2" stroke-linecap="round" stroke-linejoin="round"/>
<path d="M4.25098 16.9999C4.25302 17.6622 4.71945 18.3152 5.61304 18.9068C6.50663 19.4984 7.80264 20.0121 9.39768 20.4071C10.9927 20.8021 12.8426 21.0673 14.7998 21.1817C16.7569 21.296 18.7672 21.2563 20.6701 21.0657" stroke="#FF5F3F" stroke-width="2" stroke-linecap="round" stroke-linejoin="round"/>
</svg>
