<svg width="34" height="34" viewBox="0 0 34 34" fill="none" xmlns="http://www.w3.org/2000/svg">
<path d="M5.66661 19.8333C5.39853 19.8343 5.13569 19.7591 4.90863 19.6166C4.68157 19.474 4.49961 19.27 4.38389 19.0282C4.26818 18.7864 4.22345 18.5167 4.25491 18.2504C4.28637 17.9842 4.39272 17.7324 4.56162 17.5242L18.5866 3.07417C18.6918 2.95274 18.8352 2.87068 18.9932 2.84146C19.1512 2.81225 19.3144 2.83761 19.4561 2.91339C19.5977 2.98917 19.7094 3.11086 19.7728 3.25849C19.8362 3.40613 19.8476 3.57093 19.8049 3.72584L17.0849 12.2542C17.0047 12.4688 16.9778 12.6997 17.0065 12.9271C17.0351 13.1545 17.1185 13.3715 17.2494 13.5595C17.3804 13.7476 17.555 13.9011 17.7583 14.0068C17.9615 14.1126 18.1875 14.1674 18.4166 14.1667H28.3333C28.6014 14.1658 28.8642 14.2409 29.0913 14.3835C29.3183 14.526 29.5003 14.73 29.616 14.9718C29.7317 15.2137 29.7764 15.4833 29.745 15.7496C29.7135 16.0158 29.6072 16.2676 29.4383 16.4758L15.4133 30.9258C15.3081 31.0473 15.1647 31.1293 15.0067 31.1586C14.8487 31.1878 14.6855 31.1624 14.5438 31.0866C14.4022 31.0108 14.2905 30.8892 14.2271 30.7415C14.1637 30.5939 14.1523 30.4291 14.1949 30.2742L16.9149 21.7458C16.9952 21.5312 17.0221 21.3003 16.9934 21.0729C16.9648 20.8456 16.8814 20.6285 16.7505 20.4405C16.6195 20.2524 16.4449 20.0989 16.2416 19.9932C16.0383 19.8874 15.8124 19.8326 15.5833 19.8333H5.66661Z" stroke="#FF5F3F" stroke-width="2" stroke-linecap="round" stroke-linejoin="round"/>
</svg>
