<svg width="637" height="487" viewBox="0 0 637 487" fill="none" xmlns="http://www.w3.org/2000/svg">
<path d="M18.4615 18.0989L618.461 18.0989L618.461 468.208L18.4615 468.208L18.4615 18.0989Z" fill="black"/>
<rect x="628.131" y="8.8681" width="469.01" height="619.34" rx="17.4583" transform="rotate(90 628.131 8.8681)" stroke="#111111" stroke-width="17.5824"/>
<rect x="618.947" y="17.6128" width="451.081" height="600.971" rx="8.26373" transform="rotate(90 618.947 17.6128)" stroke="#232323" stroke-width="0.972203"/>
<g filter="url(#filter0_ii_312_65)">
<ellipse cx="630.254" cy="243.813" rx="0.967894" ry="0.96988" transform="rotate(90 630.254 243.813)" fill="black"/>
</g>
<g filter="url(#filter1_f_312_65)">
<ellipse cx="630.739" cy="243.522" rx="0.290368" ry="0.290964" transform="rotate(90 630.739 243.522)" fill="white" fill-opacity="0.66"/>
</g>
<g filter="url(#filter2_f_312_65)">
<ellipse cx="629.866" cy="244.394" rx="0.194268" ry="0.194148" transform="rotate(90 629.866 244.394)" fill="white"/>
</g>
<ellipse cx="630.255" cy="228.326" rx="3.87158" ry="3.87952" transform="rotate(90 630.255 228.326)" fill="#0A0A0A"/>
<ellipse cx="630.255" cy="212.84" rx="3.87158" ry="3.87952" transform="rotate(90 630.255 212.84)" fill="#0A0A0A"/>
<ellipse cx="630.255" cy="274.785" rx="3.87158" ry="3.87952" transform="rotate(90 630.255 274.785)" fill="#0A0A0A"/>
<ellipse cx="629.769" cy="259.783" rx="0.483947" ry="0.48494" transform="rotate(90 629.769 259.783)" fill="#0A0A0A"/>
<g clip-path="url(#clip0_312_65)">
<rect x="18.9231" y="18" width="600" height="450" rx="8" fill="white"/>
<rect x="18.9231" y="18" width="600" height="450.11" fill="url(#paint0_linear_312_65)"/>
<line x1="61.9231" y1="156.5" x2="506.923" y2="156.5" stroke="white"/>
<path d="M70.9101 211H81.0581V188.769H89.8731V180.9H62.0951V188.769H70.9101V211ZM108.548 187.049C106.011 187.049 103.732 187.823 101.926 189.371V179.094H92.2079V211H101.926V199.949C101.926 196.466 103.603 195.219 105.581 195.219C107.344 195.219 108.462 196.337 108.462 199.261V211H118.18V197.584C118.18 190.188 113.966 187.049 108.548 187.049ZM147.846 199.218C147.846 191.263 141.869 187.049 134.903 187.049C127.292 187.049 121.573 192.08 121.573 199.218C121.573 206.227 127.163 211.43 135.806 211.43C140.493 211.43 143.804 210.14 146.083 207.646L141.009 202.529C139.461 203.69 138.257 204.249 136.107 204.249C133.699 204.249 132.065 203.303 131.377 201.497H147.717C147.76 200.809 147.846 199.906 147.846 199.218ZM134.989 193.671C136.967 193.671 138.386 194.832 138.773 196.81H131.205C131.592 194.832 132.968 193.671 134.989 193.671ZM178.511 211.688C187.756 211.688 193.174 206.485 193.174 197.455V180.9H183.198V197.154C183.198 201.755 181.435 203.475 178.597 203.475C175.759 203.475 173.996 201.755 173.996 197.154V180.9H163.848V197.455C163.848 206.485 169.266 211.688 178.511 211.688ZM197.524 211H207.242V179.094H197.524V211ZM229.58 203.432C228.935 203.862 228.161 204.077 227.387 204.077C226.226 204.077 225.366 203.26 225.366 201.798V195.864H230.182V188.769H225.366V182.19H215.648V188.769H212.423V195.864H215.648V201.884C215.648 208.377 219.432 211.43 225.925 211.43C228.204 211.43 230.397 211.043 231.902 210.183L229.58 203.432ZM239.21 185.587C242.779 185.587 245.058 183.437 245.058 180.47C245.058 177.675 242.779 175.697 239.21 175.697C235.641 175.697 233.362 177.847 233.362 180.642C233.362 183.437 235.641 185.587 239.21 185.587ZM234.351 211H244.069V187.479H234.351V211ZM279.509 187.049C276.284 187.049 273.532 188.339 271.64 190.618C270.006 188.167 267.34 187.049 264.287 187.049C261.707 187.049 259.385 187.909 257.622 189.672V187.479H248.377V211H258.095V199.519C258.095 196.38 259.428 195.219 261.148 195.219C262.782 195.219 263.771 196.337 263.771 199.261V211H273.489V199.519C273.489 196.38 274.822 195.219 276.542 195.219C278.09 195.219 279.165 196.337 279.165 199.261V211H288.883V197.584C288.883 190.188 284.841 187.049 279.509 187.049ZM303.633 187.049C299.978 187.049 295.807 187.995 293.055 189.715L296.151 196.122C297.699 194.961 300.064 194.273 302.171 194.273C304.923 194.273 306.299 195.219 306.6 197.025H302.687C295.377 197.025 291.937 199.562 291.937 204.12C291.937 208.162 294.904 211.43 300.666 211.43C303.977 211.43 306.213 210.269 307.331 207.904V211H316.361V198.358C316.361 190.532 311.717 187.049 303.633 187.049ZM303.59 205.582C302.128 205.582 301.268 204.765 301.268 203.69C301.268 202.4 302.171 201.712 304.235 201.712H306.643V203.346C306.127 204.894 304.923 205.582 303.59 205.582ZM335.568 203.432C334.923 203.862 334.149 204.077 333.375 204.077C332.214 204.077 331.354 203.26 331.354 201.798V195.864H336.17V188.769H331.354V182.19H321.636V188.769H318.411V195.864H321.636V201.884C321.636 208.377 325.42 211.43 331.913 211.43C334.192 211.43 336.385 211.043 337.89 210.183L335.568 203.432ZM364.736 199.218C364.736 191.263 358.759 187.049 351.793 187.049C344.182 187.049 338.463 192.08 338.463 199.218C338.463 206.227 344.053 211.43 352.696 211.43C357.383 211.43 360.694 210.14 362.973 207.646L357.899 202.529C356.351 203.69 355.147 204.249 352.997 204.249C350.589 204.249 348.955 203.303 348.267 201.497H364.607C364.65 200.809 364.736 199.906 364.736 199.218ZM351.879 193.671C353.857 193.671 355.276 194.832 355.663 196.81H348.095C348.482 194.832 349.858 193.671 351.879 193.671ZM79.9401 263.688C85.8311 263.688 90.4751 261.538 93.4421 257.668L87.0351 251.949C85.2721 254.185 83.1651 255.475 80.4561 255.475C76.2421 255.475 73.4041 252.551 73.4041 247.95C73.4041 243.349 76.2421 240.425 80.4561 240.425C83.1651 240.425 85.2721 241.715 87.0351 243.951L93.4421 238.232C90.4751 234.362 85.8311 232.212 79.9401 232.212C70.2651 232.212 63.1701 238.705 63.1701 247.95C63.1701 257.195 70.2651 263.688 79.9401 263.688ZM111.647 239.479V250.53C111.647 254.013 110.013 255.26 108.336 255.26C106.444 255.26 105.283 254.142 105.283 250.788V239.479H95.5652V252.465C95.5652 260.119 99.8222 263.43 105.455 263.43C107.992 263.43 110.357 262.57 112.12 260.764V263H121.365V239.479H111.647ZM134.878 263.43C143.048 263.43 147.047 259.732 147.047 255.475C147.047 246.058 133.545 249.24 133.545 246.789C133.545 246.23 134.233 245.671 136.727 245.671C138.705 245.671 141.113 246.058 143.521 247.391L146.187 240.984C143.693 239.694 140.038 239.049 136.598 239.049C128.686 239.049 124.558 242.661 124.558 247.09C124.558 256.507 138.103 253.282 138.103 255.69C138.103 256.378 137.458 256.808 135.093 256.808C132.298 256.808 129.116 256.034 126.88 254.701L124.214 261.108C126.622 262.484 130.836 263.43 134.878 263.43ZM164.996 255.432C164.351 255.862 163.577 256.077 162.803 256.077C161.642 256.077 160.782 255.26 160.782 253.798V247.864H165.598V240.769H160.782V234.19H151.064V240.769H147.839V247.864H151.064V253.884C151.064 260.377 154.848 263.43 161.341 263.43C163.62 263.43 165.813 263.043 167.318 262.183L164.996 255.432ZM181.565 263.43C189.563 263.43 195.239 258.356 195.239 251.218C195.239 244.08 189.563 239.049 181.565 239.049C173.61 239.049 167.891 244.08 167.891 251.218C167.891 258.356 173.61 263.43 181.565 263.43ZM181.565 255.862C179.415 255.862 177.738 254.271 177.738 251.218C177.738 248.165 179.415 246.617 181.565 246.617C183.715 246.617 185.392 248.165 185.392 251.218C185.392 254.271 183.715 255.862 181.565 255.862ZM229.412 239.049C226.187 239.049 223.435 240.339 221.543 242.618C219.909 240.167 217.243 239.049 214.19 239.049C211.61 239.049 209.288 239.909 207.525 241.672V239.479H198.28V263H207.998V251.519C207.998 248.38 209.331 247.219 211.051 247.219C212.685 247.219 213.674 248.337 213.674 251.261V263H223.392V251.519C223.392 248.38 224.725 247.219 226.445 247.219C227.993 247.219 229.068 248.337 229.068 251.261V263H238.786V249.584C238.786 242.188 234.744 239.049 229.412 239.049ZM268.448 251.218C268.448 243.263 262.471 239.049 255.505 239.049C247.894 239.049 242.175 244.08 242.175 251.218C242.175 258.227 247.765 263.43 256.408 263.43C261.095 263.43 264.406 262.14 266.685 259.646L261.611 254.529C260.063 255.69 258.859 256.249 256.709 256.249C254.301 256.249 252.667 255.303 251.979 253.497H268.319C268.362 252.809 268.448 251.906 268.448 251.218ZM255.591 245.671C257.569 245.671 258.988 246.832 259.375 248.81H251.807C252.194 246.832 253.57 245.671 255.591 245.671ZM280.76 242.016V239.479H271.515V263H281.233V252.551C281.233 248.81 283.297 247.477 286.221 247.477C286.909 247.477 287.511 247.52 288.371 247.649V239.049C285.103 239.049 282.48 240.038 280.76 242.016ZM322.334 263H333.17L326.849 253.712C330.461 251.863 332.525 248.595 332.525 244.252C332.525 237.286 327.193 232.9 318.808 232.9H304.317V263H314.465V255.432H317.217L322.334 263ZM322.291 244.252C322.291 246.445 320.958 247.778 318.163 247.778H314.465V240.726H318.163C320.958 240.726 322.291 242.059 322.291 244.252ZM361.082 251.218C361.082 243.263 355.105 239.049 348.139 239.049C340.528 239.049 334.809 244.08 334.809 251.218C334.809 258.227 340.399 263.43 349.042 263.43C353.729 263.43 357.04 262.14 359.319 259.646L354.245 254.529C352.697 255.69 351.493 256.249 349.343 256.249C346.935 256.249 345.301 255.303 344.613 253.497H360.953C360.996 252.809 361.082 251.906 361.082 251.218ZM348.225 245.671C350.203 245.671 351.622 246.832 352.009 248.81H344.441C344.828 246.832 346.204 245.671 348.225 245.671ZM379.156 255.432C378.511 255.862 377.737 256.077 376.963 256.077C375.802 256.077 374.942 255.26 374.942 253.798V247.864H379.758V240.769H374.942V234.19H365.224V240.769H361.999V247.864H365.224V253.884C365.224 260.377 369.008 263.43 375.501 263.43C377.78 263.43 379.973 263.043 381.478 262.183L379.156 255.432ZM408.324 251.218C408.324 243.263 402.347 239.049 395.381 239.049C387.77 239.049 382.051 244.08 382.051 251.218C382.051 258.227 387.641 263.43 396.284 263.43C400.971 263.43 404.282 262.14 406.561 259.646L401.487 254.529C399.939 255.69 398.735 256.249 396.585 256.249C394.177 256.249 392.543 255.303 391.855 253.497H408.195C408.238 252.809 408.324 251.906 408.324 251.218ZM395.467 245.671C397.445 245.671 398.864 246.832 399.251 248.81H391.683C392.07 246.832 393.446 245.671 395.467 245.671ZM427.73 239.049C424.978 239.049 422.484 239.952 420.635 241.801V239.479H411.39V263H421.108V251.949C421.108 248.466 422.785 247.219 424.763 247.219C426.526 247.219 427.644 248.337 427.644 251.261V263H437.362V249.584C437.362 242.188 433.148 239.049 427.73 239.049ZM456.59 255.432C455.945 255.862 455.171 256.077 454.397 256.077C453.236 256.077 452.376 255.26 452.376 253.798V247.864H457.192V240.769H452.376V234.19H442.658V240.769H439.433V247.864H442.658V253.884C442.658 260.377 446.442 263.43 452.935 263.43C455.214 263.43 457.407 263.043 458.912 262.183L456.59 255.432ZM466.22 237.587C469.789 237.587 472.068 235.437 472.068 232.47C472.068 229.675 469.789 227.697 466.22 227.697C462.651 227.697 460.372 229.847 460.372 232.642C460.372 235.437 462.651 237.587 466.22 237.587ZM461.361 263H471.079V239.479H461.361V263ZM487.814 263.43C495.812 263.43 501.488 258.356 501.488 251.218C501.488 244.08 495.812 239.049 487.814 239.049C479.859 239.049 474.14 244.08 474.14 251.218C474.14 258.356 479.859 263.43 487.814 263.43ZM487.814 255.862C485.664 255.862 483.987 254.271 483.987 251.218C483.987 248.165 485.664 246.617 487.814 246.617C489.964 246.617 491.641 248.165 491.641 251.218C491.641 254.271 489.964 255.862 487.814 255.862ZM520.869 239.049C518.117 239.049 515.623 239.952 513.774 241.801V239.479H504.529V263H514.247V251.949C514.247 248.466 515.924 247.219 517.902 247.219C519.665 247.219 520.783 248.337 520.783 251.261V263H530.501V249.584C530.501 242.188 526.287 239.049 520.869 239.049ZM75.5971 315.688C84.9281 315.688 89.6151 311.044 89.6151 305.54C89.6151 294.446 72.9741 297.456 72.9741 293.844C72.9741 292.812 73.9201 291.952 76.8871 291.952C79.5101 291.952 82.3051 292.683 85.2721 294.188L88.3251 286.835C85.1861 285.072 81.0151 284.212 76.9731 284.212C67.6421 284.212 62.9551 288.77 62.9551 294.36C62.9551 305.583 79.5961 302.53 79.5961 306.314C79.5961 307.346 78.5641 307.948 75.6831 307.948C72.3721 307.948 68.5881 306.873 65.7501 305.196L62.4821 312.592C65.4921 314.441 70.5661 315.688 75.5971 315.688ZM107.341 307.432C106.696 307.862 105.922 308.077 105.148 308.077C103.987 308.077 103.127 307.26 103.127 305.798V299.864H107.943V292.769H103.127V286.19H93.4088V292.769H90.1838V299.864H93.4088V305.884C93.4088 312.377 97.1928 315.43 103.686 315.43C105.965 315.43 108.158 315.043 109.663 314.183L107.341 307.432ZM121.357 294.016V291.479H112.112V315H121.83V304.551C121.83 300.81 123.894 299.477 126.818 299.477C127.506 299.477 128.108 299.52 128.968 299.649V291.049C125.7 291.049 123.077 292.038 121.357 294.016ZM142.048 291.049C138.393 291.049 134.222 291.995 131.47 293.715L134.566 300.122C136.114 298.961 138.479 298.273 140.586 298.273C143.338 298.273 144.714 299.219 145.015 301.025H141.102C133.792 301.025 130.352 303.562 130.352 308.12C130.352 312.162 133.319 315.43 139.081 315.43C142.392 315.43 144.628 314.269 145.746 311.904V315H154.776V302.358C154.776 294.532 150.132 291.049 142.048 291.049ZM142.005 309.582C140.543 309.582 139.683 308.765 139.683 307.69C139.683 306.4 140.586 305.712 142.65 305.712H145.058V307.346C144.542 308.894 143.338 309.582 142.005 309.582ZM173.982 307.432C173.337 307.862 172.563 308.077 171.789 308.077C170.628 308.077 169.768 307.26 169.768 305.798V299.864H174.584V292.769H169.768V286.19H160.05V292.769H156.825V299.864H160.05V305.884C160.05 312.377 163.834 315.43 170.327 315.43C172.606 315.43 174.799 315.043 176.304 314.183L173.982 307.432ZM203.15 303.218C203.15 295.263 197.173 291.049 190.207 291.049C182.596 291.049 176.877 296.08 176.877 303.218C176.877 310.227 182.467 315.43 191.11 315.43C195.797 315.43 199.108 314.14 201.387 311.646L196.313 306.529C194.765 307.69 193.561 308.249 191.411 308.249C189.003 308.249 187.369 307.303 186.681 305.497H203.021C203.064 304.809 203.15 303.906 203.15 303.218ZM190.293 297.671C192.271 297.671 193.69 298.832 194.077 300.81H186.509C186.896 298.832 188.272 297.671 190.293 297.671ZM223.245 291.479V294.145C221.783 292.038 219.504 291.049 216.279 291.049C210.302 291.049 204.97 295.392 204.97 302.358C204.97 309.324 210.302 313.71 216.279 313.71C219.16 313.71 221.31 312.893 222.772 311.216V311.646C222.772 314.785 221.181 316.548 217.182 316.548C214.645 316.548 211.506 315.645 209.657 314.226L206.389 320.848C209.313 322.783 213.527 323.772 218.171 323.772C227.158 323.772 232.49 319.429 232.49 310.313V291.479H223.245ZM218.859 306.142C216.58 306.142 214.817 304.637 214.817 302.358C214.817 300.079 216.58 298.617 218.859 298.617C221.138 298.617 222.858 300.079 222.858 302.358C222.858 304.637 221.138 306.142 218.859 306.142ZM253.772 291.479L248.827 304.078L243.968 291.479H233.992L243.882 315.301C243.366 315.903 242.635 316.247 241.474 316.247C240.313 316.247 238.98 315.731 238.034 315L234.809 321.665C236.4 322.955 239.367 323.772 241.947 323.772C246.935 323.772 250.719 321.923 253.299 315.473L262.974 291.479H253.772ZM306.892 284.9H297.088L290.896 295.306L284.747 284.9H274.04L285.392 303.949V315H295.54V304.078L306.892 284.9ZM317.745 315.43C325.743 315.43 331.419 310.356 331.419 303.218C331.419 296.08 325.743 291.049 317.745 291.049C309.79 291.049 304.071 296.08 304.071 303.218C304.071 310.356 309.79 315.43 317.745 315.43ZM317.745 307.862C315.595 307.862 313.918 306.271 313.918 303.218C313.918 300.165 315.595 298.617 317.745 298.617C319.895 298.617 321.572 300.165 321.572 303.218C321.572 306.271 319.895 307.862 317.745 307.862ZM350.457 291.479V302.53C350.457 306.013 348.823 307.26 347.146 307.26C345.254 307.26 344.093 306.142 344.093 302.788V291.479H334.375V304.465C334.375 312.119 338.632 315.43 344.265 315.43C346.802 315.43 349.167 314.57 350.93 312.764V315H360.175V291.479H350.457ZM373.73 294.016V291.479H364.485V315H374.203V304.551C374.203 300.81 376.267 299.477 379.191 299.477C379.879 299.477 380.481 299.52 381.341 299.649V291.049C378.073 291.049 375.45 292.038 373.73 294.016ZM421.755 292.554V284.9H397.288V315H407.436V305.368H419.992V297.714H407.436V292.554H421.755ZM429.099 289.587C432.668 289.587 434.947 287.437 434.947 284.47C434.947 281.675 432.668 279.697 429.099 279.697C425.53 279.697 423.251 281.847 423.251 284.642C423.251 287.437 425.53 289.587 429.099 289.587ZM424.24 315H433.958V291.479H424.24V315ZM453.272 307.432C452.627 307.862 451.853 308.077 451.079 308.077C449.918 308.077 449.058 307.26 449.058 305.798V299.864H453.874V292.769H449.058V286.19H439.34V292.769H436.115V299.864H439.34V305.884C439.34 312.377 443.124 315.43 449.617 315.43C451.896 315.43 454.089 315.043 455.594 314.183L453.272 307.432ZM474.384 291.049C471.632 291.049 469.138 291.952 467.289 293.801V291.479H458.044V315H467.762V303.949C467.762 300.466 469.439 299.219 471.417 299.219C473.18 299.219 474.298 300.337 474.298 303.261V315H484.016V301.584C484.016 294.188 479.802 291.049 474.384 291.049ZM513.682 303.218C513.682 295.263 507.705 291.049 500.739 291.049C493.128 291.049 487.409 296.08 487.409 303.218C487.409 310.227 492.999 315.43 501.642 315.43C506.329 315.43 509.64 314.14 511.919 311.646L506.845 306.529C505.297 307.69 504.093 308.249 501.943 308.249C499.535 308.249 497.901 307.303 497.213 305.497H513.553C513.596 304.809 513.682 303.906 513.682 303.218ZM500.825 297.671C502.803 297.671 504.222 298.832 504.609 300.81H497.041C497.428 298.832 498.804 297.671 500.825 297.671ZM525.951 315.43C534.121 315.43 538.12 311.732 538.12 307.475C538.12 298.058 524.618 301.24 524.618 298.789C524.618 298.23 525.306 297.671 527.8 297.671C529.778 297.671 532.186 298.058 534.594 299.391L537.26 292.984C534.766 291.694 531.111 291.049 527.671 291.049C519.759 291.049 515.631 294.661 515.631 299.09C515.631 308.507 529.176 305.282 529.176 307.69C529.176 308.378 528.531 308.808 526.166 308.808C523.371 308.808 520.189 308.034 517.953 306.701L515.287 313.108C517.695 314.484 521.909 315.43 525.951 315.43ZM550.264 315.43C558.434 315.43 562.433 311.732 562.433 307.475C562.433 298.058 548.931 301.24 548.931 298.789C548.931 298.23 549.619 297.671 552.113 297.671C554.091 297.671 556.499 298.058 558.907 299.391L561.573 292.984C559.079 291.694 555.424 291.049 551.984 291.049C544.072 291.049 539.944 294.661 539.944 299.09C539.944 308.507 553.489 305.282 553.489 307.69C553.489 308.378 552.844 308.808 550.479 308.808C547.684 308.808 544.502 308.034 542.266 306.701L539.6 313.108C542.008 314.484 546.222 315.43 550.264 315.43ZM88.4541 351.262C91.2061 349.886 92.6251 347.564 92.6251 344.769C92.6251 340.211 88.7551 336.9 80.4561 336.9H64.3741V367H81.3161C89.6151 367 94.0441 363.947 94.0441 358.701C94.0441 355.132 91.9801 352.552 88.4541 351.262ZM79.0801 343.995C81.3591 343.995 82.3911 344.769 82.3911 346.231C82.3911 347.693 81.3591 348.467 79.0801 348.467H74.3501V343.995H79.0801ZM80.4561 359.905H74.3501V355.175H80.4561C82.6921 355.175 83.8101 355.992 83.8101 357.54C83.8101 359.088 82.6921 359.905 80.4561 359.905ZM113.327 343.479V354.53C113.327 358.013 111.693 359.26 110.016 359.26C108.124 359.26 106.963 358.142 106.963 354.788V343.479H97.2449V356.465C97.2449 364.119 101.502 367.43 107.135 367.43C109.672 367.43 112.037 366.57 113.8 364.764V367H123.045V343.479H113.327ZM136.557 367.43C144.727 367.43 148.726 363.732 148.726 359.475C148.726 350.058 135.224 353.24 135.224 350.789C135.224 350.23 135.912 349.671 138.406 349.671C140.384 349.671 142.792 350.058 145.2 351.391L147.866 344.984C145.372 343.694 141.717 343.049 138.277 343.049C130.365 343.049 126.237 346.661 126.237 351.09C126.237 360.507 139.782 357.282 139.782 359.69C139.782 360.378 139.137 360.808 136.772 360.808C133.977 360.808 130.795 360.034 128.559 358.701L125.893 365.108C128.301 366.484 132.515 367.43 136.557 367.43ZM156.528 341.587C160.097 341.587 162.376 339.437 162.376 336.47C162.376 333.675 160.097 331.697 156.528 331.697C152.959 331.697 150.68 333.847 150.68 336.642C150.68 339.437 152.959 341.587 156.528 341.587ZM151.669 367H161.387V343.479H151.669V367ZM182.034 343.049C179.282 343.049 176.788 343.952 174.939 345.801V343.479H165.694V367H175.412V355.949C175.412 352.466 177.089 351.219 179.067 351.219C180.83 351.219 181.948 352.337 181.948 355.261V367H191.666V353.584C191.666 346.188 187.452 343.049 182.034 343.049ZM221.332 355.218C221.332 347.263 215.355 343.049 208.389 343.049C200.778 343.049 195.059 348.08 195.059 355.218C195.059 362.227 200.649 367.43 209.292 367.43C213.979 367.43 217.29 366.14 219.569 363.646L214.495 358.529C212.947 359.69 211.743 360.249 209.593 360.249C207.185 360.249 205.551 359.303 204.863 357.497H221.203C221.246 356.809 221.332 355.906 221.332 355.218ZM208.475 349.671C210.453 349.671 211.872 350.832 212.259 352.81H204.691C205.078 350.832 206.454 349.671 208.475 349.671ZM233.601 367.43C241.771 367.43 245.77 363.732 245.77 359.475C245.77 350.058 232.268 353.24 232.268 350.789C232.268 350.23 232.956 349.671 235.45 349.671C237.428 349.671 239.836 350.058 242.244 351.391L244.91 344.984C242.416 343.694 238.761 343.049 235.321 343.049C227.409 343.049 223.281 346.661 223.281 351.09C223.281 360.507 236.826 357.282 236.826 359.69C236.826 360.378 236.181 360.808 233.816 360.808C231.021 360.808 227.839 360.034 225.603 358.701L222.937 365.108C225.345 366.484 229.559 367.43 233.601 367.43ZM257.915 367.43C266.085 367.43 270.084 363.732 270.084 359.475C270.084 350.058 256.582 353.24 256.582 350.789C256.582 350.23 257.27 349.671 259.764 349.671C261.742 349.671 264.15 350.058 266.558 351.391L269.224 344.984C266.73 343.694 263.075 343.049 259.635 343.049C251.723 343.049 247.595 346.661 247.595 351.09C247.595 360.507 261.14 357.282 261.14 359.69C261.14 360.378 260.495 360.808 258.13 360.808C255.335 360.808 252.153 360.034 249.917 358.701L247.251 365.108C249.659 366.484 253.873 367.43 257.915 367.43ZM305.999 336.9V350.574L294.561 336.9H286.219V367H296.109V353.326L307.547 367H315.889V336.9H305.999ZM345.503 355.218C345.503 347.263 339.526 343.049 332.56 343.049C324.949 343.049 319.23 348.08 319.23 355.218C319.23 362.227 324.82 367.43 333.463 367.43C338.15 367.43 341.461 366.14 343.74 363.646L338.666 358.529C337.118 359.69 335.914 360.249 333.764 360.249C331.356 360.249 329.722 359.303 329.034 357.497H345.374C345.417 356.809 345.503 355.906 345.503 355.218ZM332.646 349.671C334.624 349.671 336.043 350.832 336.43 352.81H328.862C329.249 350.832 330.625 349.671 332.646 349.671ZM373.596 355.218C373.596 347.263 367.619 343.049 360.653 343.049C353.042 343.049 347.323 348.08 347.323 355.218C347.323 362.227 352.913 367.43 361.556 367.43C366.243 367.43 369.554 366.14 371.833 363.646L366.759 358.529C365.211 359.69 364.007 360.249 361.857 360.249C359.449 360.249 357.815 359.303 357.127 357.497H373.467C373.51 356.809 373.596 355.906 373.596 355.218ZM360.739 349.671C362.717 349.671 364.136 350.832 364.523 352.81H356.955C357.342 350.832 358.718 349.671 360.739 349.671ZM392.96 335.094V345.07C391.541 343.694 389.563 343.049 386.983 343.049C380.834 343.049 375.631 347.65 375.631 355.218C375.631 362.786 380.834 367.43 386.983 367.43C389.907 367.43 392.014 366.656 393.433 365.065V367H402.678V335.094H392.96ZM389.305 359.862C387.155 359.862 385.478 358.271 385.478 355.218C385.478 352.165 387.155 350.617 389.305 350.617C391.455 350.617 393.132 352.165 393.132 355.218C393.132 358.271 391.455 359.862 389.305 359.862ZM416.183 367.43C424.353 367.43 428.352 363.732 428.352 359.475C428.352 350.058 414.85 353.24 414.85 350.789C414.85 350.23 415.538 349.671 418.032 349.671C420.01 349.671 422.418 350.058 424.826 351.391L427.492 344.984C424.998 343.694 421.343 343.049 417.903 343.049C409.991 343.049 405.863 346.661 405.863 351.09C405.863 360.507 419.408 357.282 419.408 359.69C419.408 360.378 418.763 360.808 416.398 360.808C413.603 360.808 410.421 360.034 408.185 358.701L405.519 365.108C407.927 366.484 412.141 367.43 416.183 367.43Z" fill="white"/>
<path d="M69.0751 136.493V132.054H76.8491V129.593H69.0751V125.407H77.8381V122.9H66.0851V139H78.1601V136.493H69.0751ZM91.1471 133.802H97.4721V131.41H91.1471V133.802ZM123.302 130.628C124.544 129.961 125.372 128.742 125.372 127.086C125.372 124.533 123.302 122.9 119.438 122.9H111.894V139H119.898C124.038 139 126.2 137.39 126.2 134.63C126.2 132.537 125.027 131.18 123.302 130.628ZM119.116 125.246C121.186 125.246 122.359 125.982 122.359 127.477C122.359 128.949 121.186 129.685 119.116 129.685H114.884V125.246H119.116ZM119.714 136.654H114.884V132.008H119.714C121.968 132.008 123.187 132.721 123.187 134.331C123.187 135.941 121.968 136.654 119.714 136.654ZM147.912 139.23C152.903 139.23 156.583 135.734 156.583 130.95C156.583 126.166 152.903 122.67 147.912 122.67C142.921 122.67 139.241 126.189 139.241 130.95C139.241 135.711 142.921 139.23 147.912 139.23ZM147.912 136.608C144.669 136.608 142.254 134.239 142.254 130.95C142.254 127.661 144.669 125.292 147.912 125.292C151.155 125.292 153.57 127.661 153.57 130.95C153.57 134.239 151.155 136.608 147.912 136.608ZM178.273 139.23C183.264 139.23 186.944 135.734 186.944 130.95C186.944 126.166 183.264 122.67 178.273 122.67C173.282 122.67 169.602 126.189 169.602 130.95C169.602 135.711 173.282 139.23 178.273 139.23ZM178.273 136.608C175.03 136.608 172.615 134.239 172.615 130.95C172.615 127.661 175.03 125.292 178.273 125.292C181.516 125.292 183.931 127.661 183.931 130.95C183.931 134.239 181.516 136.608 178.273 136.608ZM212.337 139H215.833L208.657 130.099L215.419 122.9H212.061L204.103 131.157V122.9H201.113V139H204.103V134.883L206.656 132.261L212.337 139Z" fill="white"/>
</g>
<defs>
<filter id="filter0_ii_312_65" x="628.993" y="242.845" width="2.52302" height="1.93579" filterUnits="userSpaceOnUse" color-interpolation-filters="sRGB">
<feFlood flood-opacity="0" result="BackgroundImageFix"/>
<feBlend mode="normal" in="SourceGraphic" in2="BackgroundImageFix" result="shape"/>
<feColorMatrix in="SourceAlpha" type="matrix" values="0 0 0 0 0 0 0 0 0 0 0 0 0 0 0 0 0 0 127 0" result="hardAlpha"/>
<feOffset dx="0.291661"/>
<feGaussianBlur stdDeviation="0.194441"/>
<feComposite in2="hardAlpha" operator="arithmetic" k2="-1" k3="1"/>
<feColorMatrix type="matrix" values="0 0 0 0 0.137063 0 0 0 0 0.165856 0 0 0 0 0.425 0 0 0 1 0"/>
<feBlend mode="normal" in2="shape" result="effect1_innerShadow_312_65"/>
<feColorMatrix in="SourceAlpha" type="matrix" values="0 0 0 0 0 0 0 0 0 0 0 0 0 0 0 0 0 0 127 0" result="hardAlpha"/>
<feOffset dx="-0.291661"/>
<feGaussianBlur stdDeviation="0.194441"/>
<feComposite in2="hardAlpha" operator="arithmetic" k2="-1" k3="1"/>
<feColorMatrix type="matrix" values="0 0 0 0 0.137063 0 0 0 0 0.165856 0 0 0 0 0.425 0 0 0 1 0"/>
<feBlend mode="normal" in2="effect1_innerShadow_312_65" result="effect2_innerShadow_312_65"/>
</filter>
<filter id="filter1_f_312_65" x="630.254" y="243.037" width="0.970912" height="0.969692" filterUnits="userSpaceOnUse" color-interpolation-filters="sRGB">
<feFlood flood-opacity="0" result="BackgroundImageFix"/>
<feBlend mode="normal" in="SourceGraphic" in2="BackgroundImageFix" result="shape"/>
<feGaussianBlur stdDeviation="0.0972203" result="effect1_foregroundBlur_312_65"/>
</filter>
<filter id="filter2_f_312_65" x="629.478" y="244.006" width="0.777065" height="0.777309" filterUnits="userSpaceOnUse" color-interpolation-filters="sRGB">
<feFlood flood-opacity="0" result="BackgroundImageFix"/>
<feBlend mode="normal" in="SourceGraphic" in2="BackgroundImageFix" result="shape"/>
<feGaussianBlur stdDeviation="0.0972203" result="effect1_foregroundBlur_312_65"/>
</filter>
<linearGradient id="paint0_linear_312_65" x1="18.9231" y1="243.055" x2="618.923" y2="243.055" gradientUnits="userSpaceOnUse">
<stop stop-color="#606C88"/>
<stop offset="1" stop-color="#3F4C6B"/>
</linearGradient>
<clipPath id="clip0_312_65">
<rect x="18.9231" y="18" width="600" height="450" rx="8" fill="white"/>
</clipPath>
</defs>
</svg>
