<svg width="637" height="487" viewBox="0 0 637 487" fill="none" xmlns="http://www.w3.org/2000/svg">
<path d="M18.4615 18.0219L618.461 18.022L618.461 468.131L18.4615 468.131L18.4615 18.0219Z" fill="black"/>
<g clip-path="url(#clip0_1613_44)">
<rect width="600" height="450" transform="translate(18 18)" fill="white"/>
<rect x="18" y="18" width="600" height="450.11" fill="url(#paint0_linear_1613_44)"/>
<line x1="61" y1="143.5" x2="506" y2="143.5" stroke="white"/>
<path d="M68.152 123.493V119.054H75.926V116.593H68.152V112.407H76.915V109.9H65.162V126H77.237V123.493H68.152ZM90.224 120.802H96.549V118.41H90.224V120.802ZM122.379 117.628C123.621 116.961 124.449 115.742 124.449 114.086C124.449 111.533 122.379 109.9 118.515 109.9H110.971V126H118.975C123.115 126 125.277 124.39 125.277 121.63C125.277 119.537 124.104 118.18 122.379 117.628ZM118.193 112.246C120.263 112.246 121.436 112.982 121.436 114.477C121.436 115.949 120.263 116.685 118.193 116.685H113.961V112.246H118.193ZM118.791 123.654H113.961V119.008H118.791C121.045 119.008 122.264 119.721 122.264 121.331C122.264 122.941 121.045 123.654 118.791 123.654ZM146.989 126.23C151.98 126.23 155.66 122.734 155.66 117.95C155.66 113.166 151.98 109.67 146.989 109.67C141.998 109.67 138.318 113.189 138.318 117.95C138.318 122.711 141.998 126.23 146.989 126.23ZM146.989 123.608C143.746 123.608 141.331 121.239 141.331 117.95C141.331 114.661 143.746 112.292 146.989 112.292C150.232 112.292 152.647 114.661 152.647 117.95C152.647 121.239 150.232 123.608 146.989 123.608ZM177.35 126.23C182.341 126.23 186.021 122.734 186.021 117.95C186.021 113.166 182.341 109.67 177.35 109.67C172.359 109.67 168.679 113.189 168.679 117.95C168.679 122.711 172.359 126.23 177.35 126.23ZM177.35 123.608C174.107 123.608 171.692 121.239 171.692 117.95C171.692 114.661 174.107 112.292 177.35 112.292C180.593 112.292 183.008 114.661 183.008 117.95C183.008 121.239 180.593 123.608 177.35 123.608ZM211.414 126H214.91L207.734 117.099L214.496 109.9H211.138L203.18 118.157V109.9H200.19V126H203.18V121.883L205.733 119.261L211.414 126Z" fill="white"/>
<path d="M77.74 197.78C90.16 197.78 95.08 203.36 95.08 210.8C95.08 218.24 89.62 224.72 77.62 224.72C71.8 224.72 65.68 223.1 61.6 220.22L65.44 212.78C68.62 215.18 73 216.56 77.38 216.56C82.24 216.56 85.24 214.52 85.24 211.1C85.24 207.8 83.08 205.64 75.46 205.64H64.72L66.88 182H92.5V189.8H74.98L74.32 197.78H77.74ZM117.024 224.72C106.704 224.72 99.0236 216.86 99.0236 203C99.0236 189.14 106.704 181.28 117.024 181.28C127.404 181.28 135.024 189.14 135.024 203C135.024 216.86 127.404 224.72 117.024 224.72ZM117.024 216.5C121.884 216.5 125.244 212.54 125.244 203C125.244 193.46 121.884 189.5 117.024 189.5C112.224 189.5 108.864 193.46 108.864 203C108.864 212.54 112.224 216.5 117.024 216.5ZM169.921 199.34V206.66H159.481V216.86H151.741V206.66H141.361V199.34H151.741V189.14H159.481V199.34H169.921ZM213.711 182C224.931 182 231.951 187.82 231.951 197.24C231.951 206.6 224.931 212.42 213.711 212.42H205.251V224H195.531V182H213.711ZM213.171 204.5C219.111 204.5 222.111 201.8 222.111 197.24C222.111 192.62 219.111 189.92 213.171 189.92H205.251V204.5H213.171ZM269.792 207.98C269.792 208.7 269.672 209.72 269.612 210.5H245.192C246.092 214.52 249.512 216.98 254.432 216.98C257.852 216.98 260.312 215.96 262.532 213.86L267.512 219.26C264.512 222.68 260.012 224.48 254.192 224.48C243.032 224.48 235.772 217.46 235.772 207.86C235.772 198.2 243.152 191.24 252.992 191.24C262.472 191.24 269.792 197.6 269.792 207.98ZM253.052 198.32C248.792 198.32 245.732 200.9 245.072 205.04H260.972C260.312 200.96 257.252 198.32 253.052 198.32ZM284.963 195.98C287.243 192.86 291.083 191.24 296.063 191.24V199.88C295.283 199.82 294.683 199.76 293.963 199.76C288.803 199.76 285.383 202.58 285.383 208.76V224H276.023V191.72H284.963V195.98ZM312.606 224.48C307.146 224.48 301.626 222.98 298.626 221L301.746 214.28C304.626 216.14 309.006 217.4 312.966 217.4C317.286 217.4 318.906 216.26 318.906 214.46C318.906 209.18 299.406 214.58 299.406 201.68C299.406 195.56 304.926 191.24 314.346 191.24C318.786 191.24 323.706 192.26 326.766 194.06L323.646 200.72C320.466 198.92 317.286 198.32 314.346 198.32C310.146 198.32 308.346 199.64 308.346 201.32C308.346 206.84 327.846 201.5 327.846 214.22C327.846 220.22 322.266 224.48 312.606 224.48ZM348.981 224.48C338.721 224.48 331.221 217.58 331.221 207.86C331.221 198.14 338.721 191.24 348.981 191.24C359.241 191.24 366.681 198.14 366.681 207.86C366.681 217.58 359.241 224.48 348.981 224.48ZM348.981 216.8C353.661 216.8 357.201 213.44 357.201 207.86C357.201 202.28 353.661 198.92 348.981 198.92C344.301 198.92 340.701 202.28 340.701 207.86C340.701 213.44 344.301 216.8 348.981 216.8ZM392.557 191.24C400.177 191.24 405.937 195.68 405.937 205.52V224H396.577V206.96C396.577 201.74 394.177 199.34 390.037 199.34C385.537 199.34 382.297 202.1 382.297 208.04V224H372.937V191.72H381.877V195.5C384.397 192.74 388.177 191.24 392.557 191.24ZM427.442 191.24C437.282 191.24 442.982 195.8 442.982 205.58V224H434.222V219.98C432.482 222.92 429.122 224.48 424.382 224.48C416.822 224.48 412.322 220.28 412.322 214.7C412.322 209 416.342 205.04 426.182 205.04H433.622C433.622 201.02 431.222 198.68 426.182 198.68C422.762 198.68 419.222 199.82 416.882 201.68L413.522 195.14C417.062 192.62 422.282 191.24 427.442 191.24ZM426.722 218.18C429.842 218.18 432.542 216.74 433.622 213.8V210.5H427.202C422.822 210.5 421.442 212.12 421.442 214.28C421.442 216.62 423.422 218.18 426.722 218.18ZM451.453 224V179.48H460.813V224H451.453ZM74.68 297V262.92H61.24V255H97.84V262.92H84.4V297H74.68ZM110.647 268.98C112.927 265.86 116.767 264.24 121.747 264.24V272.88C120.967 272.82 120.367 272.76 119.647 272.76C114.487 272.76 111.067 275.58 111.067 281.76V297H101.707V264.72H110.647V268.98ZM140.156 264.24C149.996 264.24 155.696 268.8 155.696 278.58V297H146.936V292.98C145.196 295.92 141.836 297.48 137.096 297.48C129.536 297.48 125.036 293.28 125.036 287.7C125.036 282 129.056 278.04 138.896 278.04H146.336C146.336 274.02 143.936 271.68 138.896 271.68C135.476 271.68 131.936 272.82 129.596 274.68L126.236 268.14C129.776 265.62 134.996 264.24 140.156 264.24ZM139.436 291.18C142.556 291.18 145.256 289.74 146.336 286.8V283.5H139.916C135.536 283.5 134.156 285.12 134.156 287.28C134.156 289.62 136.136 291.18 139.436 291.18ZM168.848 260.22C165.368 260.22 163.028 257.94 163.028 255C163.028 252.06 165.368 249.78 168.848 249.78C172.328 249.78 174.668 251.94 174.668 254.82C174.668 257.94 172.328 260.22 168.848 260.22ZM164.168 297V264.72H173.528V297H164.168ZM201.835 264.24C209.455 264.24 215.215 268.68 215.215 278.52V297H205.855V279.96C205.855 274.74 203.455 272.34 199.315 272.34C194.815 272.34 191.575 275.1 191.575 281.04V297H182.215V264.72H191.155V268.5C193.675 265.74 197.455 264.24 201.835 264.24ZM255.67 280.98C255.67 281.7 255.55 282.72 255.49 283.5H231.07C231.97 287.52 235.39 289.98 240.31 289.98C243.73 289.98 246.19 288.96 248.41 286.86L253.39 292.26C250.39 295.68 245.89 297.48 240.07 297.48C228.91 297.48 221.65 290.46 221.65 280.86C221.65 271.2 229.03 264.24 238.87 264.24C248.35 264.24 255.67 270.6 255.67 280.98ZM238.93 271.32C234.67 271.32 231.61 273.9 230.95 278.04H246.85C246.19 273.96 243.13 271.32 238.93 271.32ZM270.842 268.98C273.122 265.86 276.962 264.24 281.942 264.24V272.88C281.162 272.82 280.562 272.76 279.842 272.76C274.682 272.76 271.262 275.58 271.262 281.76V297H261.902V264.72H270.842V268.98ZM84.16 328C95.38 328 102.4 333.82 102.4 343.24C102.4 352.6 95.38 358.42 84.16 358.42H75.7V370H65.98V328H84.16ZM83.62 350.5C89.56 350.5 92.56 347.8 92.56 343.24C92.56 338.62 89.56 335.92 83.62 335.92H75.7V350.5H83.62ZM123.981 370.48C113.721 370.48 106.221 363.58 106.221 353.86C106.221 344.14 113.721 337.24 123.981 337.24C134.241 337.24 141.681 344.14 141.681 353.86C141.681 363.58 134.241 370.48 123.981 370.48ZM123.981 362.8C128.661 362.8 132.201 359.44 132.201 353.86C132.201 348.28 128.661 344.92 123.981 344.92C119.301 344.92 115.701 348.28 115.701 353.86C115.701 359.44 119.301 362.8 123.981 362.8ZM171.457 325.48H180.817V370H171.877V366.28C169.537 369.1 166.117 370.48 161.797 370.48C152.677 370.48 145.657 364 145.657 353.86C145.657 343.72 152.677 337.24 161.797 337.24C165.757 337.24 169.117 338.5 171.457 341.14V325.48ZM163.417 362.8C168.037 362.8 171.637 359.44 171.637 353.86C171.637 348.28 168.037 344.92 163.417 344.92C158.737 344.92 155.137 348.28 155.137 353.86C155.137 359.44 158.737 362.8 163.417 362.8ZM205.08 370.48C194.58 370.48 187.08 363.58 187.08 353.86C187.08 344.14 194.58 337.24 205.08 337.24C211.86 337.24 217.2 340.18 219.54 345.46L212.28 349.36C210.54 346.3 207.96 344.92 205.02 344.92C200.28 344.92 196.56 348.22 196.56 353.86C196.56 359.5 200.28 362.8 205.02 362.8C207.96 362.8 210.54 361.48 212.28 358.36L219.54 362.32C217.2 367.48 211.86 370.48 205.08 370.48ZM237.949 337.24C247.789 337.24 253.489 341.8 253.489 351.58V370H244.729V365.98C242.989 368.92 239.629 370.48 234.889 370.48C227.329 370.48 222.829 366.28 222.829 360.7C222.829 355 226.849 351.04 236.689 351.04H244.129C244.129 347.02 241.729 344.68 236.689 344.68C233.269 344.68 229.729 345.82 227.389 347.68L224.029 341.14C227.569 338.62 232.789 337.24 237.949 337.24ZM237.229 364.18C240.349 364.18 243.049 362.74 244.129 359.8V356.5H237.709C233.329 356.5 231.949 358.12 231.949 360.28C231.949 362.62 233.929 364.18 237.229 364.18ZM272.821 370.48C267.361 370.48 261.841 368.98 258.841 367L261.961 360.28C264.841 362.14 269.221 363.4 273.181 363.4C277.501 363.4 279.121 362.26 279.121 360.46C279.121 355.18 259.621 360.58 259.621 347.68C259.621 341.56 265.141 337.24 274.561 337.24C279.001 337.24 283.921 338.26 286.981 340.06L283.861 346.72C280.681 344.92 277.501 344.32 274.561 344.32C270.361 344.32 268.561 345.64 268.561 347.32C268.561 352.84 288.061 347.5 288.061 360.22C288.061 366.22 282.481 370.48 272.821 370.48ZM312.136 361.84L314.656 368.44C312.736 369.82 309.916 370.48 307.036 370.48C299.416 370.48 294.976 366.58 294.976 358.9V345.64H289.996V338.44H294.976V330.58H304.336V338.44H312.376V345.64H304.336V358.78C304.336 361.54 305.836 363.04 308.356 363.04C309.736 363.04 311.116 362.62 312.136 361.84ZM337.562 370V328H347.282V370H337.562ZM380.11 325.48H389.47V370H380.53V366.28C378.19 369.1 374.77 370.48 370.45 370.48C361.33 370.48 354.31 364 354.31 353.86C354.31 343.72 361.33 337.24 370.45 337.24C374.41 337.24 377.77 338.5 380.11 341.14V325.48ZM372.07 362.8C376.69 362.8 380.29 359.44 380.29 353.86C380.29 348.28 376.69 344.92 372.07 344.92C367.39 344.92 363.79 348.28 363.79 353.86C363.79 359.44 367.39 362.8 372.07 362.8ZM429.753 353.98C429.753 354.7 429.633 355.72 429.573 356.5H405.153C406.053 360.52 409.473 362.98 414.393 362.98C417.813 362.98 420.273 361.96 422.493 359.86L427.473 365.26C424.473 368.68 419.973 370.48 414.153 370.48C402.993 370.48 395.733 363.46 395.733 353.86C395.733 344.2 403.113 337.24 412.953 337.24C422.433 337.24 429.753 343.6 429.753 353.98ZM413.013 344.32C408.753 344.32 405.693 346.9 405.033 351.04H420.933C420.273 346.96 417.213 344.32 413.013 344.32ZM448.125 337.24C457.965 337.24 463.665 341.8 463.665 351.58V370H454.905V365.98C453.165 368.92 449.805 370.48 445.065 370.48C437.505 370.48 433.005 366.28 433.005 360.7C433.005 355 437.025 351.04 446.865 351.04H454.305C454.305 347.02 451.905 344.68 446.865 344.68C443.445 344.68 439.905 345.82 437.565 347.68L434.205 341.14C437.745 338.62 442.965 337.24 448.125 337.24ZM447.405 364.18C450.525 364.18 453.225 362.74 454.305 359.8V356.5H447.885C443.505 356.5 442.125 358.12 442.125 360.28C442.125 362.62 444.105 364.18 447.405 364.18ZM482.996 370.48C477.536 370.48 472.016 368.98 469.016 367L472.136 360.28C475.016 362.14 479.396 363.4 483.356 363.4C487.676 363.4 489.296 362.26 489.296 360.46C489.296 355.18 469.796 360.58 469.796 347.68C469.796 341.56 475.316 337.24 484.736 337.24C489.176 337.24 494.096 338.26 497.156 340.06L494.036 346.72C490.856 344.92 487.676 344.32 484.736 344.32C480.536 344.32 478.736 345.64 478.736 347.32C478.736 352.84 498.236 347.5 498.236 360.22C498.236 366.22 492.656 370.48 482.996 370.48Z" fill="white"/>
</g>
<rect x="628.131" y="8.7912" width="469.01" height="619.34" rx="17.4583" transform="rotate(90 628.131 8.7912)" stroke="#111111" stroke-width="17.5824"/>
<rect x="618.947" y="17.5359" width="451.081" height="600.971" rx="8.26373" transform="rotate(90 618.947 17.5359)" stroke="#232323" stroke-width="0.972203"/>
<g filter="url(#filter0_ii_1613_44)">
<ellipse cx="630.254" cy="243.736" rx="0.967894" ry="0.96988" transform="rotate(90 630.254 243.736)" fill="black"/>
</g>
<g filter="url(#filter1_f_1613_44)">
<ellipse cx="630.739" cy="243.446" rx="0.290368" ry="0.290964" transform="rotate(90 630.739 243.446)" fill="white" fill-opacity="0.66"/>
</g>
<g filter="url(#filter2_f_1613_44)">
<ellipse cx="629.866" cy="244.317" rx="0.194268" ry="0.194148" transform="rotate(90 629.866 244.317)" fill="white"/>
</g>
<ellipse cx="630.254" cy="228.25" rx="3.87158" ry="3.87952" transform="rotate(90 630.254 228.25)" fill="#0A0A0A"/>
<ellipse cx="630.254" cy="212.763" rx="3.87158" ry="3.87952" transform="rotate(90 630.254 212.763)" fill="#0A0A0A"/>
<ellipse cx="630.254" cy="274.709" rx="3.87158" ry="3.87952" transform="rotate(90 630.254 274.709)" fill="#0A0A0A"/>
<ellipse cx="629.769" cy="259.706" rx="0.483947" ry="0.48494" transform="rotate(90 629.769 259.706)" fill="#0A0A0A"/>
<defs>
<filter id="filter0_ii_1613_44" x="628.993" y="242.768" width="2.52314" height="1.93579" filterUnits="userSpaceOnUse" color-interpolation-filters="sRGB">
<feFlood flood-opacity="0" result="BackgroundImageFix"/>
<feBlend mode="normal" in="SourceGraphic" in2="BackgroundImageFix" result="shape"/>
<feColorMatrix in="SourceAlpha" type="matrix" values="0 0 0 0 0 0 0 0 0 0 0 0 0 0 0 0 0 0 127 0" result="hardAlpha"/>
<feOffset dx="0.291661"/>
<feGaussianBlur stdDeviation="0.194441"/>
<feComposite in2="hardAlpha" operator="arithmetic" k2="-1" k3="1"/>
<feColorMatrix type="matrix" values="0 0 0 0 0.137063 0 0 0 0 0.165856 0 0 0 0 0.425 0 0 0 1 0"/>
<feBlend mode="normal" in2="shape" result="effect1_innerShadow_1613_44"/>
<feColorMatrix in="SourceAlpha" type="matrix" values="0 0 0 0 0 0 0 0 0 0 0 0 0 0 0 0 0 0 127 0" result="hardAlpha"/>
<feOffset dx="-0.291661"/>
<feGaussianBlur stdDeviation="0.194441"/>
<feComposite in2="hardAlpha" operator="arithmetic" k2="-1" k3="1"/>
<feColorMatrix type="matrix" values="0 0 0 0 0.137063 0 0 0 0 0.165856 0 0 0 0 0.425 0 0 0 1 0"/>
<feBlend mode="normal" in2="effect1_innerShadow_1613_44" result="effect2_innerShadow_1613_44"/>
</filter>
<filter id="filter1_f_1613_44" x="630.254" y="242.961" width="0.97079" height="0.969631" filterUnits="userSpaceOnUse" color-interpolation-filters="sRGB">
<feFlood flood-opacity="0" result="BackgroundImageFix"/>
<feBlend mode="normal" in="SourceGraphic" in2="BackgroundImageFix" result="shape"/>
<feGaussianBlur stdDeviation="0.0972203" result="effect1_foregroundBlur_1613_44"/>
</filter>
<filter id="filter2_f_1613_44" x="629.478" y="243.929" width="0.777187" height="0.777431" filterUnits="userSpaceOnUse" color-interpolation-filters="sRGB">
<feFlood flood-opacity="0" result="BackgroundImageFix"/>
<feBlend mode="normal" in="SourceGraphic" in2="BackgroundImageFix" result="shape"/>
<feGaussianBlur stdDeviation="0.0972203" result="effect1_foregroundBlur_1613_44"/>
</filter>
<linearGradient id="paint0_linear_1613_44" x1="18" y1="18" x2="618" y2="468" gradientUnits="userSpaceOnUse">
<stop stop-color="#30F2A8"/>
<stop offset="1" stop-color="#163485"/>
</linearGradient>
<clipPath id="clip0_1613_44">
<rect width="600" height="450" fill="white" transform="translate(18 18)"/>
</clipPath>
</defs>
</svg>
