<svg width="637" height="487" viewBox="0 0 637 487" fill="none" xmlns="http://www.w3.org/2000/svg">
<path d="M18.4617 18.0219L618.461 18.022L618.461 468.131L18.4617 468.131L18.4617 18.0219Z" fill="black"/>
<g clip-path="url(#clip0_1407_6168)">
<rect width="600" height="450" transform="translate(18 18)" fill="white"/>
<rect x="18" y="18" width="600" height="450.11" fill="url(#paint0_linear_1407_6168)"/>
<line x1="61" y1="143.5" x2="506" y2="143.5" stroke="white"/>
<path d="M68.152 123.493V119.054H75.926V116.593H68.152V112.407H76.915V109.9H65.162V126H77.237V123.493H68.152ZM90.224 120.802H96.549V118.41H90.224V120.802ZM122.379 117.628C123.621 116.961 124.449 115.742 124.449 114.086C124.449 111.533 122.379 109.9 118.515 109.9H110.971V126H118.975C123.115 126 125.277 124.39 125.277 121.63C125.277 119.537 124.104 118.18 122.379 117.628ZM118.193 112.246C120.263 112.246 121.436 112.982 121.436 114.477C121.436 115.949 120.263 116.685 118.193 116.685H113.961V112.246H118.193ZM118.791 123.654H113.961V119.008H118.791C121.045 119.008 122.264 119.721 122.264 121.331C122.264 122.941 121.045 123.654 118.791 123.654ZM146.989 126.23C151.98 126.23 155.66 122.734 155.66 117.95C155.66 113.166 151.98 109.67 146.989 109.67C141.998 109.67 138.318 113.189 138.318 117.95C138.318 122.711 141.998 126.23 146.989 126.23ZM146.989 123.608C143.746 123.608 141.331 121.239 141.331 117.95C141.331 114.661 143.746 112.292 146.989 112.292C150.232 112.292 152.647 114.661 152.647 117.95C152.647 121.239 150.232 123.608 146.989 123.608ZM177.35 126.23C182.341 126.23 186.021 122.734 186.021 117.95C186.021 113.166 182.341 109.67 177.35 109.67C172.359 109.67 168.679 113.189 168.679 117.95C168.679 122.711 172.359 126.23 177.35 126.23ZM177.35 123.608C174.107 123.608 171.692 121.239 171.692 117.95C171.692 114.661 174.107 112.292 177.35 112.292C180.593 112.292 183.008 114.661 183.008 117.95C183.008 121.239 180.593 123.608 177.35 123.608ZM211.414 126H214.91L207.734 117.099L214.496 109.9H211.138L203.18 118.157V109.9H200.19V126H203.18V121.883L205.733 119.261L211.414 126Z" fill="white"/>
<path d="M77.74 197.78C90.16 197.78 95.08 203.36 95.08 210.8C95.08 218.24 89.62 224.72 77.62 224.72C71.8 224.72 65.68 223.1 61.6 220.22L65.44 212.78C68.62 215.18 73 216.56 77.38 216.56C82.24 216.56 85.24 214.52 85.24 211.1C85.24 207.8 83.08 205.64 75.46 205.64H64.72L66.88 182H92.5V189.8H74.98L74.32 197.78H77.74ZM117.024 224.72C106.704 224.72 99.0236 216.86 99.0236 203C99.0236 189.14 106.704 181.28 117.024 181.28C127.404 181.28 135.024 189.14 135.024 203C135.024 216.86 127.404 224.72 117.024 224.72ZM117.024 216.5C121.884 216.5 125.244 212.54 125.244 203C125.244 193.46 121.884 189.5 117.024 189.5C112.224 189.5 108.864 193.46 108.864 203C108.864 212.54 112.224 216.5 117.024 216.5ZM157.746 224.72C147.426 224.72 139.746 216.86 139.746 203C139.746 189.14 147.426 181.28 157.746 181.28C168.126 181.28 175.746 189.14 175.746 203C175.746 216.86 168.126 224.72 157.746 224.72ZM157.746 216.5C162.606 216.5 165.966 212.54 165.966 203C165.966 193.46 162.606 189.5 157.746 189.5C152.946 189.5 149.586 193.46 149.586 203C149.586 212.54 152.946 216.5 157.746 216.5ZM210.643 199.34V206.66H200.203V216.86H192.463V206.66H182.083V199.34H192.463V189.14H200.203V199.34H210.643ZM264.633 214.64V202.34H273.513V219.38C268.893 222.86 262.533 224.72 256.533 224.72C243.333 224.72 233.613 215.66 233.613 203C233.613 190.34 243.333 181.28 256.713 181.28C264.093 181.28 270.213 183.8 274.293 188.54L268.053 194.3C264.993 191.06 261.453 189.56 257.193 189.56C249.033 189.56 243.453 195.02 243.453 203C243.453 210.86 249.033 216.44 257.073 216.44C259.713 216.44 262.173 215.96 264.633 214.64ZM304.923 191.72H313.923L299.343 225.98C296.223 233.78 291.783 236.12 285.963 236.12C282.663 236.12 279.063 235.04 276.962 233.18L280.383 226.52C281.823 227.78 283.803 228.56 285.663 228.56C288.243 228.56 289.683 227.42 290.943 224.54L291.063 224.24L277.082 191.72H286.743L295.803 213.62L304.923 191.72ZM359.082 191.24C366.762 191.24 372.282 195.68 372.282 205.52V224H362.922V206.96C362.922 201.74 360.582 199.34 356.802 199.34C352.602 199.34 349.662 202.04 349.662 207.8V224H340.302V206.96C340.302 201.74 338.082 199.34 334.182 199.34C330.042 199.34 327.102 202.04 327.102 207.8V224H317.742V191.72H326.682V195.44C329.082 192.68 332.682 191.24 336.822 191.24C341.322 191.24 345.162 192.98 347.442 196.52C350.022 193.22 354.222 191.24 359.082 191.24ZM75.64 289.2H98.5V297H65.98V255H97.72V262.8H75.64V271.92H95.14V279.48H75.64V289.2ZM128.321 264.72H137.321L123.701 297H114.041L100.481 264.72H110.141L119.081 286.68L128.321 264.72ZM171.881 280.98C171.881 281.7 171.761 282.72 171.701 283.5H147.281C148.181 287.52 151.601 289.98 156.521 289.98C159.941 289.98 162.401 288.96 164.621 286.86L169.601 292.26C166.601 295.68 162.101 297.48 156.281 297.48C145.121 297.48 137.861 290.46 137.861 280.86C137.861 271.2 145.241 264.24 155.081 264.24C164.561 264.24 171.881 270.6 171.881 280.98ZM155.141 271.32C150.881 271.32 147.821 273.9 147.161 278.04H163.061C162.401 273.96 159.341 271.32 155.141 271.32ZM197.733 264.24C205.353 264.24 211.113 268.68 211.113 278.52V297H201.753V279.96C201.753 274.74 199.353 272.34 195.213 272.34C190.713 272.34 187.473 275.1 187.473 281.04V297H178.113V264.72H187.053V268.5C189.573 265.74 193.353 264.24 197.733 264.24ZM237.897 288.84L240.417 295.44C238.497 296.82 235.677 297.48 232.797 297.48C225.177 297.48 220.737 293.58 220.737 285.9V272.64H215.757V265.44H220.737V257.58H230.097V265.44H238.137V272.64H230.097V285.78C230.097 288.54 231.597 290.04 234.117 290.04C235.497 290.04 236.877 289.62 237.897 288.84ZM263.324 297V255H273.044V297H263.324ZM305.871 252.48H315.231V297H306.291V293.28C303.951 296.1 300.531 297.48 296.211 297.48C287.091 297.48 280.071 291 280.071 280.86C280.071 270.72 287.091 264.24 296.211 264.24C300.171 264.24 303.531 265.5 305.871 268.14V252.48ZM297.831 289.8C302.451 289.8 306.051 286.44 306.051 280.86C306.051 275.28 302.451 271.92 297.831 271.92C293.151 271.92 289.551 275.28 289.551 280.86C289.551 286.44 293.151 289.8 297.831 289.8ZM355.514 280.98C355.514 281.7 355.394 282.72 355.334 283.5H330.914C331.814 287.52 335.234 289.98 340.154 289.98C343.574 289.98 346.034 288.96 348.254 286.86L353.234 292.26C350.234 295.68 345.734 297.48 339.914 297.48C328.754 297.48 321.494 290.46 321.494 280.86C321.494 271.2 328.874 264.24 338.714 264.24C348.194 264.24 355.514 270.6 355.514 280.98ZM338.774 271.32C334.514 271.32 331.454 273.9 330.794 278.04H346.694C346.034 273.96 342.974 271.32 338.774 271.32ZM373.887 264.24C383.727 264.24 389.427 268.8 389.427 278.58V297H380.667V292.98C378.927 295.92 375.567 297.48 370.827 297.48C363.267 297.48 358.767 293.28 358.767 287.7C358.767 282 362.787 278.04 372.627 278.04H380.067C380.067 274.02 377.667 271.68 372.627 271.68C369.207 271.68 365.667 272.82 363.327 274.68L359.967 268.14C363.507 265.62 368.727 264.24 373.887 264.24ZM373.167 291.18C376.287 291.18 378.987 289.74 380.067 286.8V283.5H373.647C369.267 283.5 367.887 285.12 367.887 287.28C367.887 289.62 369.867 291.18 373.167 291.18ZM408.758 297.48C403.298 297.48 397.778 295.98 394.778 294L397.898 287.28C400.778 289.14 405.158 290.4 409.118 290.4C413.438 290.4 415.058 289.26 415.058 287.46C415.058 282.18 395.558 287.58 395.558 274.68C395.558 268.56 401.078 264.24 410.498 264.24C414.938 264.24 419.858 265.26 422.918 267.06L419.798 273.72C416.618 271.92 413.438 271.32 410.498 271.32C406.298 271.32 404.498 272.64 404.498 274.32C404.498 279.84 423.998 274.5 423.998 287.22C423.998 293.22 418.418 297.48 408.758 297.48Z" fill="white"/>
<path d="M67.18 358.82C64.84 355.19 63.52 350.3 63.52 344.78C63.52 339.26 64.84 334.31 67.18 330.74H70.75C68.26 335.12 67.21 339.65 67.21 344.78C67.21 349.91 68.26 354.44 70.75 358.82H67.18ZM89.5504 335.27H78.1204V341.66H88.2604V344.96H78.1204V353H74.2204V332H89.5504V335.27ZM104.283 336.98H108.033V353H104.463V350.96C103.263 352.43 101.373 353.21 99.3025 353.21C95.1925 353.21 92.4025 350.96 92.4025 346.13V336.98H96.1525V345.62C96.1525 348.53 97.5325 349.91 99.9025 349.91C102.513 349.91 104.283 348.29 104.283 345.08V336.98ZM122.032 336.8C125.872 336.8 128.722 338.99 128.722 343.82V353H124.972V344.3C124.972 341.45 123.562 340.07 121.162 340.07C118.492 340.07 116.692 341.69 116.692 344.9V353H112.942V336.98H116.512V339.05C117.742 337.58 119.692 336.8 122.032 336.8ZM134.71 348.23C136.12 348.23 137.14 349.25 137.14 350.72C137.14 351.38 136.99 351.92 136.45 353.3L134.92 357.53H132.49L133.69 352.94C132.85 352.58 132.28 351.8 132.28 350.72C132.28 349.22 133.33 348.23 134.71 348.23ZM159.175 353.3C152.755 353.3 147.955 348.77 147.955 342.5C147.955 336.23 152.755 331.7 159.205 331.7C162.625 331.7 165.565 332.93 167.515 335.21L164.995 337.58C163.465 335.93 161.575 335.12 159.385 335.12C155.035 335.12 151.885 338.18 151.885 342.5C151.885 346.82 155.035 349.88 159.385 349.88C161.575 349.88 163.465 349.07 164.995 347.39L167.515 349.79C165.565 352.07 162.625 353.3 159.175 353.3ZM179.982 336.8C183.822 336.8 186.672 338.99 186.672 343.82V353H182.922V344.3C182.922 341.45 181.512 340.07 179.112 340.07C176.442 340.07 174.642 341.69 174.642 344.9V353H170.892V330.74H174.642V338.84C175.872 337.52 177.762 336.8 179.982 336.8ZM197.549 336.8C202.169 336.8 204.839 338.99 204.839 343.61V353H201.299V351.05C200.399 352.43 198.659 353.21 196.259 353.21C192.599 353.21 190.289 351.2 190.289 348.41C190.289 345.74 192.089 343.64 196.949 343.64H201.089V343.4C201.089 341.21 199.769 339.92 197.099 339.92C195.299 339.92 193.439 340.52 192.239 341.51L190.769 338.78C192.479 337.46 194.969 336.8 197.549 336.8ZM197.039 350.48C198.869 350.48 200.459 349.64 201.089 347.99V346.13H197.219C194.669 346.13 193.979 347.09 193.979 348.26C193.979 349.61 195.119 350.48 197.039 350.48ZM209.651 353V330.74H213.401V353H209.651ZM218.323 353V330.74H222.073V353H218.323ZM242.055 345.08C242.055 345.38 242.025 345.83 241.995 346.19H229.425C229.875 348.53 231.825 350.03 234.615 350.03C236.415 350.03 237.825 349.46 238.965 348.29L240.975 350.6C239.535 352.31 237.285 353.21 234.525 353.21C229.155 353.21 225.675 349.76 225.675 344.99C225.675 340.22 229.185 336.8 233.955 336.8C238.635 336.8 242.055 340.07 242.055 345.08ZM233.955 339.8C231.525 339.8 229.755 341.36 229.395 343.7H238.485C238.185 341.39 236.415 339.8 233.955 339.8ZM254.747 336.8C258.587 336.8 261.437 338.99 261.437 343.82V353H257.687V344.3C257.687 341.45 256.277 340.07 253.877 340.07C251.207 340.07 249.407 341.69 249.407 344.9V353H245.657V336.98H249.227V339.05C250.457 337.58 252.407 336.8 254.747 336.8ZM278.671 336.98H282.241V350.57C282.241 356.39 279.211 359.03 273.601 359.03C270.601 359.03 267.631 358.25 265.801 356.75L267.481 353.93C268.891 355.1 271.171 355.85 273.391 355.85C276.931 355.85 278.491 354.23 278.491 350.99V350.15C277.171 351.59 275.281 352.28 273.121 352.28C268.531 352.28 265.021 349.16 265.021 344.51C265.021 339.86 268.531 336.8 273.121 336.8C275.371 336.8 277.351 337.52 278.671 339.11V336.98ZM273.691 349.1C276.511 349.1 278.551 347.24 278.551 344.51C278.551 341.81 276.511 339.98 273.691 339.98C270.841 339.98 268.801 341.81 268.801 344.51C268.801 347.24 270.841 349.1 273.691 349.1ZM289.061 334.34C287.681 334.34 286.661 333.35 286.661 332.09C286.661 330.83 287.681 329.84 289.061 329.84C290.441 329.84 291.461 330.77 291.461 332C291.461 333.32 290.471 334.34 289.061 334.34ZM287.171 353V336.98H290.921V353H287.171ZM304.933 336.8C308.773 336.8 311.623 338.99 311.623 343.82V353H307.873V344.3C307.873 341.45 306.463 340.07 304.063 340.07C301.393 340.07 299.593 341.69 299.593 344.9V353H295.843V336.98H299.413V339.05C300.643 337.58 302.593 336.8 304.933 336.8ZM328.856 336.98H332.426V350.57C332.426 356.39 329.396 359.03 323.786 359.03C320.786 359.03 317.816 358.25 315.986 356.75L317.666 353.93C319.076 355.1 321.356 355.85 323.576 355.85C327.116 355.85 328.676 354.23 328.676 350.99V350.15C327.356 351.59 325.466 352.28 323.306 352.28C318.716 352.28 315.206 349.16 315.206 344.51C315.206 339.86 318.716 336.8 323.306 336.8C325.556 336.8 327.536 337.52 328.856 339.11V336.98ZM323.876 349.1C326.696 349.1 328.736 347.24 328.736 344.51C328.736 341.81 326.696 339.98 323.876 339.98C321.026 339.98 318.986 341.81 318.986 344.51C318.986 347.24 321.026 349.1 323.876 349.1ZM363.828 350.9L361.758 353.33L359.118 350.78C357.228 352.4 354.828 353.3 352.068 353.3C347.628 353.3 344.418 350.99 344.418 347.69C344.418 345.08 345.858 343.25 349.278 341.33C347.568 339.62 346.938 338.24 346.938 336.71C346.938 333.77 349.338 331.76 353.028 331.76C356.418 331.76 358.638 333.53 358.638 336.38C358.638 338.54 357.378 340.1 354.348 341.81L358.878 346.13C359.388 345.14 359.778 343.94 360.048 342.59L363.078 343.58C362.688 345.41 362.058 347.03 361.188 348.38L363.828 350.9ZM353.028 334.43C351.348 334.43 350.358 335.36 350.358 336.65C350.358 337.58 350.748 338.27 352.248 339.77C354.678 338.45 355.458 337.58 355.458 336.44C355.458 335.24 354.588 334.43 353.028 334.43ZM352.338 350.24C354.078 350.24 355.608 349.7 356.898 348.65L351.348 343.34C348.918 344.69 348.078 345.8 348.078 347.3C348.078 349.04 349.758 350.24 352.338 350.24ZM385.2 353.3C378.78 353.3 373.98 348.77 373.98 342.5C373.98 336.23 378.78 331.7 385.23 331.7C388.65 331.7 391.59 332.93 393.54 335.21L391.02 337.58C389.49 335.93 387.6 335.12 385.41 335.12C381.06 335.12 377.91 338.18 377.91 342.5C377.91 346.82 381.06 349.88 385.41 349.88C387.6 349.88 389.49 349.07 391.02 347.39L393.54 349.79C391.59 352.07 388.65 353.3 385.2 353.3ZM400.487 339.32C401.567 337.64 403.517 336.8 406.187 336.8V340.37C405.857 340.31 405.587 340.28 405.317 340.28C402.467 340.28 400.667 341.96 400.667 345.23V353H396.917V336.98H400.487V339.32ZM424.282 345.08C424.282 345.38 424.252 345.83 424.222 346.19H411.652C412.102 348.53 414.052 350.03 416.842 350.03C418.642 350.03 420.052 349.46 421.192 348.29L423.202 350.6C421.762 352.31 419.512 353.21 416.752 353.21C411.382 353.21 407.902 349.76 407.902 344.99C407.902 340.22 411.412 336.8 416.182 336.8C420.862 336.8 424.282 340.07 424.282 345.08ZM416.182 339.8C413.752 339.8 411.982 341.36 411.622 343.7H420.712C420.412 341.39 418.642 339.8 416.182 339.8ZM433.564 336.8C438.184 336.8 440.854 338.99 440.854 343.61V353H437.314V351.05C436.414 352.43 434.674 353.21 432.274 353.21C428.614 353.21 426.304 351.2 426.304 348.41C426.304 345.74 428.104 343.64 432.964 343.64H437.104V343.4C437.104 341.21 435.784 339.92 433.114 339.92C431.314 339.92 429.454 340.52 428.254 341.51L426.784 338.78C428.494 337.46 430.984 336.8 433.564 336.8ZM433.054 350.48C434.884 350.48 436.474 349.64 437.104 347.99V346.13H433.234C430.684 346.13 429.994 347.09 429.994 348.26C429.994 349.61 431.134 350.48 433.054 350.48ZM454.247 349.46L455.297 352.13C454.397 352.85 453.047 353.21 451.697 353.21C448.187 353.21 446.177 351.35 446.177 347.81V340.1H443.537V337.1H446.177V333.44H449.927V337.1H454.217V340.1H449.927V347.72C449.927 349.28 450.707 350.12 452.147 350.12C452.927 350.12 453.677 349.91 454.247 349.46ZM460.272 334.34C458.892 334.34 457.872 333.35 457.872 332.09C457.872 330.83 458.892 329.84 460.272 329.84C461.652 329.84 462.672 330.77 462.672 332C462.672 333.32 461.682 334.34 460.272 334.34ZM458.382 353V336.98H462.132V353H458.382ZM478.454 336.98H482.054L475.184 353H471.314L464.444 336.98H468.344L473.324 348.86L478.454 336.98ZM499.018 345.08C499.018 345.38 498.988 345.83 498.958 346.19H486.388C486.838 348.53 488.788 350.03 491.578 350.03C493.378 350.03 494.788 349.46 495.928 348.29L497.938 350.6C496.498 352.31 494.248 353.21 491.488 353.21C486.118 353.21 482.638 349.76 482.638 344.99C482.638 340.22 486.148 336.8 490.918 336.8C495.598 336.8 499.018 340.07 499.018 345.08ZM490.918 339.8C488.488 339.8 486.718 341.36 486.358 343.7H495.448C495.148 341.39 493.378 339.8 490.918 339.8ZM504.39 358.82H500.82C503.31 354.44 504.39 349.91 504.39 344.78C504.39 339.65 503.31 335.12 500.82 330.74H504.39C506.76 334.31 508.05 339.26 508.05 344.78C508.05 350.3 506.76 355.19 504.39 358.82Z" fill="white"/>
</g>
<rect x="628.131" y="8.7912" width="469.01" height="619.34" rx="17.4583" transform="rotate(90 628.131 8.7912)" stroke="#111111" stroke-width="17.5824"/>
<rect x="618.946" y="17.5359" width="451.081" height="600.971" rx="8.26373" transform="rotate(90 618.946 17.5359)" stroke="#232323" stroke-width="0.972203"/>
<g filter="url(#filter0_ii_1407_6168)">
<ellipse cx="630.254" cy="243.736" rx="0.967894" ry="0.96988" transform="rotate(90 630.254 243.736)" fill="black"/>
</g>
<g filter="url(#filter1_f_1407_6168)">
<ellipse cx="630.738" cy="243.446" rx="0.290368" ry="0.290964" transform="rotate(90 630.738 243.446)" fill="white" fill-opacity="0.66"/>
</g>
<g filter="url(#filter2_f_1407_6168)">
<ellipse cx="629.865" cy="244.317" rx="0.194268" ry="0.194148" transform="rotate(90 629.865 244.317)" fill="white"/>
</g>
<ellipse cx="630.254" cy="228.25" rx="3.87158" ry="3.87952" transform="rotate(90 630.254 228.25)" fill="#0A0A0A"/>
<ellipse cx="630.254" cy="212.763" rx="3.87158" ry="3.87952" transform="rotate(90 630.254 212.763)" fill="#0A0A0A"/>
<ellipse cx="630.254" cy="274.709" rx="3.87158" ry="3.87952" transform="rotate(90 630.254 274.709)" fill="#0A0A0A"/>
<ellipse cx="629.769" cy="259.706" rx="0.483947" ry="0.48494" transform="rotate(90 629.769 259.706)" fill="#0A0A0A"/>
<defs>
<filter id="filter0_ii_1407_6168" x="628.993" y="242.768" width="2.52277" height="1.93579" filterUnits="userSpaceOnUse" color-interpolation-filters="sRGB">
<feFlood flood-opacity="0" result="BackgroundImageFix"/>
<feBlend mode="normal" in="SourceGraphic" in2="BackgroundImageFix" result="shape"/>
<feColorMatrix in="SourceAlpha" type="matrix" values="0 0 0 0 0 0 0 0 0 0 0 0 0 0 0 0 0 0 127 0" result="hardAlpha"/>
<feOffset dx="0.291661"/>
<feGaussianBlur stdDeviation="0.194441"/>
<feComposite in2="hardAlpha" operator="arithmetic" k2="-1" k3="1"/>
<feColorMatrix type="matrix" values="0 0 0 0 0.137063 0 0 0 0 0.165856 0 0 0 0 0.425 0 0 0 1 0"/>
<feBlend mode="normal" in2="shape" result="effect1_innerShadow_1407_6168"/>
<feColorMatrix in="SourceAlpha" type="matrix" values="0 0 0 0 0 0 0 0 0 0 0 0 0 0 0 0 0 0 127 0" result="hardAlpha"/>
<feOffset dx="-0.291661"/>
<feGaussianBlur stdDeviation="0.194441"/>
<feComposite in2="hardAlpha" operator="arithmetic" k2="-1" k3="1"/>
<feColorMatrix type="matrix" values="0 0 0 0 0.137063 0 0 0 0 0.165856 0 0 0 0 0.425 0 0 0 1 0"/>
<feBlend mode="normal" in2="effect1_innerShadow_1407_6168" result="effect2_innerShadow_1407_6168"/>
</filter>
<filter id="filter1_f_1407_6168" x="630.253" y="242.961" width="0.970912" height="0.969631" filterUnits="userSpaceOnUse" color-interpolation-filters="sRGB">
<feFlood flood-opacity="0" result="BackgroundImageFix"/>
<feBlend mode="normal" in="SourceGraphic" in2="BackgroundImageFix" result="shape"/>
<feGaussianBlur stdDeviation="0.0972203" result="effect1_foregroundBlur_1407_6168"/>
</filter>
<filter id="filter2_f_1407_6168" x="629.476" y="243.929" width="0.777553" height="0.777431" filterUnits="userSpaceOnUse" color-interpolation-filters="sRGB">
<feFlood flood-opacity="0" result="BackgroundImageFix"/>
<feBlend mode="normal" in="SourceGraphic" in2="BackgroundImageFix" result="shape"/>
<feGaussianBlur stdDeviation="0.0972203" result="effect1_foregroundBlur_1407_6168"/>
</filter>
<linearGradient id="paint0_linear_1407_6168" x1="18" y1="18" x2="618" y2="468" gradientUnits="userSpaceOnUse">
<stop stop-color="#5C5CFA"/>
<stop offset="0.53748" stop-color="#2F2FBF"/>
<stop offset="1" stop-color="#03122F"/>
</linearGradient>
<clipPath id="clip0_1407_6168">
<rect width="600" height="450" fill="white" transform="translate(18 18)"/>
</clipPath>
</defs>
</svg>
