<svg width="1440" height="942" viewBox="0 0 1440 942" fill="none" xmlns="http://www.w3.org/2000/svg">
<rect width="1440" height="942" fill="#0D0D0D"/>
<mask id="mask0_243_432" style="mask-type:alpha" maskUnits="userSpaceOnUse" x="0" y="0" width="1440" height="942">
<rect width="1440" height="942" fill="#F0F3F5"/>
</mask>
<g mask="url(#mask0_243_432)">
<g opacity="0.2" filter="url(#filter0_f_243_432)">
<circle cx="1187" cy="354" r="223" fill="#FC4FF6"/>
</g>
<g opacity="0.2" filter="url(#filter1_f_243_432)">
<ellipse cx="262" cy="321" rx="232" ry="231" fill="#8593E8"/>
</g>
<g opacity="0.2" filter="url(#filter2_f_243_432)">
<circle cx="710.5" cy="233.5" r="233.5" fill="#5D6EF3"/>
</g>
<path opacity="0.0144928" d="M1266.86 1370.53C1275.38 1375.05 1285.85 1373.39 1292.55 1366.46L1492.87 1159.28C1496.83 1155.18 1499.01 1149.69 1498.95 1143.99L1493.97 731.492C1493.92 727.01 1492.47 722.655 1489.84 719.03L1277.29 426.865C1272.51 420.293 1264.45 416.956 1256.42 418.227L1008.2 457.541C1000.18 458.812 993.54 464.478 991.023 472.206L879.166 815.751C877.778 820.013 877.75 824.602 879.083 828.881L1001.82 1222.73C1003.52 1228.17 1007.29 1232.72 1012.33 1235.39L1266.86 1370.53Z" stroke="url(#paint0_linear_243_432)"/>
<path opacity="0.0289855" d="M1221.53 1369.18C1229.78 1374.11 1240.3 1373.01 1247.34 1366.47L1457.03 1171.8C1461.21 1167.92 1463.69 1162.54 1463.92 1156.83L1480.59 748.436C1480.77 743.944 1479.55 739.506 1477.09 735.74L1281.42 435.724C1276.99 428.925 1269.12 425.182 1261.05 426.03L1012.6 452.143C1004.53 452.992 997.611 458.289 994.687 465.861L865.668 800.003C864.049 804.197 863.777 808.793 864.89 813.149L966.101 1209.16C967.515 1214.69 971.058 1219.43 975.957 1222.36L1221.53 1369.18Z" stroke="url(#paint1_linear_243_432)"/>
<path opacity="0.0434783" d="M1176.55 1366.45C1184.52 1371.78 1195.05 1371.23 1202.42 1365.1L1420.71 1183.35C1425.11 1179.69 1427.87 1174.44 1428.41 1168.75L1466.27 765.579C1466.69 761.089 1465.7 756.579 1463.43 752.681L1284.86 445.771C1280.79 438.765 1273.13 434.626 1265.04 435.05L1017.06 448.046C1008.96 448.471 1001.78 453.387 998.462 460.781L852.958 784.674C851.11 788.788 850.595 793.377 851.484 797.798L931.278 1194.8C932.405 1200.41 935.705 1205.34 940.457 1208.52L1176.55 1366.45Z" stroke="url(#paint2_linear_243_432)"/>
<path opacity="0.057971" d="M1132 1362.38C1139.67 1368.1 1150.17 1368.1 1157.84 1362.38L1383.97 1193.92C1388.56 1190.5 1391.61 1185.4 1392.45 1179.73L1451 782.874C1451.66 778.399 1450.9 773.829 1448.83 769.809L1287.56 456.965C1283.85 449.769 1276.43 445.247 1268.33 445.247L1021.51 445.247C1013.41 445.247 1005.99 449.769 1002.28 456.965L841.011 769.809C838.938 773.829 838.179 778.399 838.839 782.874L897.392 1179.73C898.228 1185.4 901.275 1190.5 905.866 1193.92L1132 1362.38Z" stroke="url(#paint3_linear_243_432)"/>
<path opacity="0.0724638" d="M1087.94 1357.01C1095.28 1363.09 1105.74 1363.63 1113.68 1358.36L1346.87 1203.49C1351.64 1200.32 1354.97 1195.38 1356.1 1189.76L1434.79 800.267C1435.69 795.82 1435.17 791.202 1433.29 787.068L1289.44 469.25C1286.11 461.885 1278.95 456.993 1270.87 456.57L1025.87 443.73C1017.8 443.307 1010.17 447.423 1006.08 454.399L829.796 755.44C827.503 759.355 826.5 763.893 826.929 768.411L864.474 1163.99C865.016 1169.7 867.803 1174.96 872.222 1178.62L1087.94 1357.01Z" stroke="url(#paint4_linear_243_432)"/>
<path opacity="0.0869565" d="M1044.44 1350.37C1051.45 1356.79 1061.83 1357.88 1070.02 1353.06L1309.45 1212.06C1314.4 1209.14 1317.99 1204.38 1319.42 1198.82L1417.64 817.704C1418.77 813.296 1418.49 808.641 1416.83 804.404L1290.47 482.571C1287.52 475.056 1280.63 469.81 1272.6 468.966L1030.1 443.478C1022.07 442.634 1014.24 446.332 1009.79 453.07L819.282 741.599C816.774 745.398 815.529 749.892 815.723 754.44L832.555 1147.65C832.801 1153.39 835.319 1158.79 839.553 1162.67L1044.44 1350.37Z" stroke="url(#paint5_linear_243_432)"/>
<path opacity="0.101449" d="M1001.56 1342.51C1008.11 1349.15 1018.17 1350.83 1026.51 1346.72L1026.91 1346.52L1271.78 1219.62C1276.73 1217.05 1280.49 1212.68 1282.29 1207.42L1282.46 1206.91L1399.54 835.138C1400.92 830.782 1400.87 826.103 1399.42 821.773L1290.59 496.875C1288.03 489.23 1281.43 483.645 1273.47 482.384L1034.1 444.472C1026.14 443.21 1018.14 446.483 1013.34 452.962L809.434 728.328C806.717 731.998 805.231 736.434 805.189 741.001L801.659 1130.76C801.607 1136.51 803.848 1142.05 807.888 1146.14L1001.56 1342.51Z" stroke="url(#paint6_linear_243_432)"/>
<path opacity="0.115942" d="M959.368 1333.46C965.656 1340.52 975.798 1342.67 984.412 1338.79L1233.91 1226.15C1239.16 1223.78 1243.25 1219.42 1245.27 1214.02L1380.52 852.51C1382.12 848.218 1382.32 843.528 1381.09 839.115L1289.76 512.096C1287.59 504.343 1281.3 498.434 1273.42 496.76L1037.83 446.682C1029.95 445.009 1021.8 447.847 1016.67 454.05L800.218 715.647C797.297 719.177 795.573 723.543 795.294 728.117L771.808 1113.38C771.458 1119.13 773.416 1124.79 777.248 1129.09L959.368 1333.46Z" stroke="url(#paint7_linear_243_432)"/>
<path opacity="0.130435" d="M917.921 1323.29C923.826 1330.63 933.807 1333.31 942.592 1329.9L1195.9 1231.68C1201.28 1229.59 1205.61 1225.44 1207.91 1220.15L1360.57 869.777C1362.4 865.563 1362.85 860.872 1361.84 856.387L1287.92 528.18C1286.16 520.338 1280.19 514.122 1272.42 512.042L1041.21 450.088C1033.44 448.007 1025.17 450.406 1019.72 456.314L791.599 703.592C788.482 706.971 786.523 711.255 786.006 715.824L743.024 1095.59C742.375 1101.32 744.044 1107.07 747.66 1111.57L917.921 1323.29Z" stroke="url(#paint8_linear_243_432)"/>
<path opacity="0.144928" d="M877.27 1312.05C882.78 1319.66 892.572 1322.84 901.502 1319.92L1157.8 1236.19C1163.3 1234.39 1167.84 1230.47 1170.43 1225.31L1339.71 886.888C1341.77 882.763 1342.46 878.085 1341.68 873.539L1285.05 545.063C1283.69 537.153 1278.06 530.648 1270.42 528.168L1044.19 454.659C1036.55 452.179 1028.17 454.13 1022.42 459.728L783.539 692.189C780.233 695.406 778.042 699.596 777.287 704.147L715.317 1077.43C714.37 1083.13 715.746 1088.98 719.135 1093.66L877.27 1312.05Z" stroke="url(#paint9_linear_243_432)"/>
<path opacity="0.15942" d="M837.47 1299.78C842.573 1307.63 852.151 1311.31 861.198 1308.89L1119.67 1239.69C1125.27 1238.19 1130.02 1234.51 1132.88 1229.48L1317.95 903.791C1320.24 899.767 1321.17 895.115 1320.62 890.52L1281.11 562.674C1280.15 554.717 1274.88 547.943 1267.39 545.071L1046.7 460.356C1039.22 457.484 1030.76 458.985 1024.73 464.256L775.999 681.461C772.512 684.505 770.094 688.587 769.101 693.108L688.703 1058.98C687.461 1064.63 688.537 1070.55 691.691 1075.4L837.47 1299.78Z" stroke="url(#paint10_linear_243_432)"/>
<path opacity="0.173913" d="M798.567 1286.55C803.179 1294.5 812.301 1298.65 821.3 1296.94L821.728 1296.86L1081.56 1242.18C1087.24 1240.99 1092.19 1237.57 1095.32 1232.68L1295.31 920.439C1297.82 916.528 1299 911.914 1298.68 907.281L1276.07 580.949C1275.52 572.967 1270.6 565.941 1263.29 562.686L1048.7 467.143C1041.62 463.99 1033.41 464.875 1027.17 469.416L1026.58 469.866L768.939 671.427C765.281 674.288 762.641 678.252 761.411 682.731L663.188 1040.29C661.652 1045.88 662.426 1051.85 665.335 1056.87L798.567 1286.55Z" stroke="url(#paint11_linear_243_432)"/>
<path opacity="0.188406" d="M760.607 1272.41C764.865 1280.69 773.94 1285.31 783.138 1283.89L1043.53 1243.69C1049.27 1242.81 1054.41 1239.65 1057.8 1234.93L1271.82 936.791C1274.54 933.005 1275.96 928.441 1275.87 923.781L1269.9 599.825C1269.75 591.837 1265.21 584.581 1258.1 580.954L1050.12 474.985C1043 471.358 1034.46 471.951 1027.92 476.526L762.32 662.113C758.499 664.783 755.643 668.616 754.178 673.04L638.776 1021.43C636.95 1026.94 637.418 1032.96 640.075 1038.12L760.607 1272.41Z" stroke="url(#paint12_linear_243_432)"/>
<path opacity="0.202899" d="M723.629 1257.43C727.392 1265.75 735.965 1270.79 745.037 1270.08L745.47 1270.04L1005.62 1244.22C1011.4 1243.65 1016.72 1240.76 1020.36 1236.22L1247.48 952.794C1250.41 949.144 1252.07 944.644 1252.22 939.968L1262.58 619.227C1262.84 611.255 1258.68 603.788 1251.78 599.8L1050.92 483.835C1044.01 479.847 1035.47 479.985 1028.69 484.193L756.1 653.531C752.127 656 749.06 659.69 747.362 664.048L615.469 1002.46C613.356 1007.88 613.516 1013.93 615.913 1019.23L723.629 1257.43Z" stroke="url(#paint13_linear_243_432)"/>
<path opacity="0.217391" d="M687.669 1241.67C691.049 1250.27 699.527 1255.78 708.764 1255.37L967.881 1243.79C973.702 1243.53 979.173 1240.93 983.053 1236.59L1222.34 968.412C1225.47 964.909 1227.37 960.483 1227.75 955.804L1254.08 639.091C1254.74 631.155 1250.99 623.499 1244.31 619.162L1051.04 493.651C1044.36 489.315 1035.84 488.999 1028.86 492.829L750.238 645.701C746.122 647.959 742.852 651.496 740.924 655.776L593.261 983.452C590.867 988.765 590.718 994.819 592.848 1000.24L687.669 1241.67Z" stroke="url(#paint14_linear_243_432)"/>
<path opacity="0.231884" d="M652.761 1225.19C655.694 1233.92 663.84 1239.84 673.055 1239.93L930.372 1242.42C936.209 1242.48 941.822 1240.17 945.934 1236.03L1196.41 983.599C1199.73 980.254 1201.87 975.916 1202.49 971.246L1244.41 659.343C1245.46 651.464 1242.12 643.639 1235.68 638.967L1050.45 504.387C1044.02 499.714 1035.54 498.947 1028.38 502.388L744.69 638.633C740.443 640.673 736.978 644.045 734.822 648.235L572.15 964.458C569.479 969.649 569.021 975.699 570.878 981.233L652.761 1225.19Z" stroke="url(#paint15_linear_243_432)"/>
<path opacity="0.246377" d="M618.935 1208.06C621.415 1216.9 629.21 1223.21 638.375 1223.8L893.137 1240.13C898.972 1240.5 904.711 1238.5 909.043 1234.57L1169.72 998.316C1173.23 995.14 1175.6 990.902 1176.46 986.252L1233.53 679.916C1234.99 672.114 1232.05 664.143 1225.88 659.148L1049.1 515.992C1042.93 510.998 1034.52 509.782 1027.19 512.826L739.417 632.34C735.049 634.154 731.395 637.349 729.017 641.438L552.122 945.543C549.182 950.598 548.414 956.627 549.993 962.257L618.935 1208.06Z" stroke="url(#paint16_linear_243_432)"/>
<path opacity="0.26087" d="M586.213 1190.34C588.238 1199.27 595.661 1205.95 604.749 1207.03L856.219 1236.94C862.035 1237.63 867.884 1235.94 872.427 1232.24L1142.31 1012.52C1145.99 1009.53 1148.59 1005.4 1149.69 1000.78L1221.45 700.737C1223.3 693.032 1220.78 684.936 1214.89 679.634L1046.94 528.414C1041.06 523.113 1032.74 521.455 1025.27 524.094L734.37 626.825C729.893 628.406 726.061 631.417 723.465 635.392L533.165 926.765C529.962 931.67 528.885 937.664 530.181 943.376L586.213 1190.34Z" stroke="url(#paint17_linear_243_432)"/>
<path opacity="0.275362" d="M554.617 1172.11C556.185 1181.09 563.22 1188.13 572.204 1189.7L819.665 1232.88C825.445 1233.89 831.387 1232.51 836.128 1229.05L1114.21 1026.19C1118.06 1023.38 1120.87 1019.38 1122.21 1014.8L1208.17 721.737C1210.4 714.149 1208.3 705.95 1202.71 700.358L1043.95 541.603C1038.36 536.011 1030.16 533.917 1022.58 536.143L729.511 622.099C724.938 623.44 720.935 626.255 718.126 630.106L515.263 908.185C511.804 912.926 510.422 918.868 511.43 924.649L554.617 1172.11Z" stroke="url(#paint18_linear_243_432)"/>
<path opacity="0.289855" d="M524.166 1153.43C525.276 1162.45 531.906 1169.81 540.759 1171.86L783.516 1227.98C789.243 1229.31 795.263 1228.24 800.189 1225.04L1085.45 1039.27C1089.46 1036.66 1092.49 1032.79 1094.06 1028.28L1193.68 742.848C1196.28 735.396 1194.62 727.118 1189.34 721.252L1040.1 555.506C1034.82 549.64 1026.76 547.117 1019.07 548.925L724.796 618.164C720.139 619.26 715.975 621.869 712.959 625.584L498.396 889.861C494.691 894.424 493.003 900.3 493.722 906.135L524.166 1153.43Z" stroke="url(#paint19_linear_243_432)"/>
<path opacity="0.304348" d="M494.871 1134.37C495.525 1143.4 501.733 1151.07 510.43 1153.58L747.814 1222.27C753.294 1223.86 759.171 1223.21 764.169 1220.49L764.65 1220.22L1056.06 1051.75C1060.22 1049.34 1063.46 1045.62 1065.27 1041.17L1178 764.002C1180.97 756.703 1179.73 748.367 1174.77 742.244L1035.34 570.065C1030.39 563.942 1022.49 561 1014.73 562.386L720.182 615.021C715.453 615.867 711.139 618.262 707.923 621.83L482.542 871.848C478.599 876.223 476.61 882.016 477.035 887.89L494.871 1134.37Z" stroke="url(#paint20_linear_243_432)"/>
<path opacity="0.318841" d="M466.74 1114.99C466.936 1123.87 472.534 1131.71 480.83 1134.79L481.228 1134.94L712.595 1215.78C718.165 1217.73 724.289 1217.32 729.546 1214.64L1026.1 1063.58C1030.4 1061.39 1033.84 1057.83 1035.88 1053.46L1161.12 785.128C1164.45 778.002 1163.65 769.631 1159.02 763.269L1029.67 585.224C1025.04 578.862 1017.33 575.51 1009.53 576.472L715.625 612.669C710.838 613.258 706.385 615.431 702.975 618.842L467.673 854.201C463.502 858.373 461.216 864.069 461.346 869.967L466.74 1114.99Z" stroke="url(#paint21_linear_243_432)"/>
<path opacity="0.333333" d="M439.779 1095.38C439.526 1104.36 444.853 1112.56 453.161 1115.99L677.899 1208.55C683.364 1210.8 689.513 1210.72 694.915 1208.32L995.586 1074.75C1000.01 1072.78 1003.65 1069.39 1005.92 1065.11L1143.07 806.161C1146.75 799.225 1146.37 790.843 1142.1 784.26L1023.04 600.928C1018.77 594.346 1011.26 590.596 1003.43 591.131L711.084 611.105C706.252 611.436 701.67 613.378 698.074 616.622L453.762 836.974C449.373 840.932 446.795 846.515 446.628 852.424L439.779 1095.38Z" stroke="url(#paint22_linear_243_432)"/>
<path opacity="0.347826" d="M413.99 1075.59C413.301 1084.37 418.007 1092.68 425.86 1096.61L426.236 1096.8L643.757 1200.6C648.935 1203.07 654.874 1203.38 660.269 1201.48L660.789 1201.29L964.572 1085.22C969.116 1083.49 972.942 1080.27 975.432 1076.09L1123.86 827.034C1127.87 820.305 1127.93 811.933 1124.02 805.149L1015.45 617.117C1011.54 610.333 1004.26 606.197 996.426 606.305L706.518 610.322C701.655 610.389 696.956 612.094 693.181 615.16L440.776 820.213C436.18 823.947 433.316 829.402 432.853 835.306L413.99 1075.59Z" stroke="url(#paint23_linear_243_432)"/>
<path opacity="0.362319" d="M389.37 1055.69C388.228 1064.53 392.628 1073.17 400.452 1077.44L610.202 1191.99C615.41 1194.83 621.556 1195.41 627.203 1193.59L933.098 1094.98C937.747 1093.49 941.752 1090.46 944.46 1086.39L1103.52 847.685C1107.85 841.18 1108.34 832.841 1104.79 825.875L1006.89 633.734C1003.34 626.768 996.305 622.26 988.494 621.943L701.886 610.313C697.005 610.115 692.201 611.575 688.256 614.456L428.682 803.97C424.04 807.36 420.945 812.452 420.065 818.117L419.986 818.666L389.37 1055.69Z" stroke="url(#paint24_linear_243_432)"/>
<path opacity="0.376812" d="M365.91 1035.75C364.333 1044.48 368.257 1053.3 375.806 1057.97L577.264 1182.74C582.317 1185.87 588.437 1186.78 594.183 1185.26L901.203 1104.01C905.797 1102.79 909.859 1100.1 912.765 1096.35L913.042 1095.98L1082.05 868.051C1086.7 861.784 1087.61 853.5 1084.44 846.373L997.325 650.718C994.152 643.591 987.386 638.725 979.62 637.985L697.145 611.069C692.262 610.603 687.365 611.813 683.259 614.497L417.443 788.29C412.467 791.543 409.05 796.701 407.994 802.551L365.91 1035.75Z" stroke="url(#paint25_linear_243_432)"/>
<path opacity="0.391304" d="M343.6 1015.83C341.597 1024.44 345.038 1033.41 352.29 1038.47L544.969 1172.89C549.853 1176.3 555.927 1177.54 561.757 1176.33L868.933 1112.28C873.756 1111.27 878.091 1108.65 881.221 1104.84L1059.5 888.071C1064.44 882.059 1065.78 873.852 1062.99 866.584L986.762 668.013C983.972 660.745 977.491 655.537 969.793 654.377L692.258 612.577C687.386 611.843 682.409 612.795 678.152 615.276L407.019 773.219C401.872 776.217 398.19 781.204 396.84 787.004L343.6 1015.83Z" stroke="url(#paint26_linear_243_432)"/>
<path opacity="0.405797" d="M322.429 996C320.007 1004.47 322.96 1013.56 329.896 1018.98L513.341 1162.49C518.041 1166.17 524.051 1167.74 529.95 1166.84L836.331 1119.78C841.223 1119.03 845.71 1116.62 849.041 1112.96L1035.89 907.689C1041.12 901.944 1042.87 893.836 1040.47 886.448L975.192 685.559C972.792 678.171 966.613 672.638 959.006 671.064L687.187 614.824C682.341 613.821 677.296 614.511 672.897 616.779L397.369 758.794C392.065 761.528 388.126 766.333 386.485 772.07L322.429 996Z" stroke="url(#paint27_linear_243_432)"/>
<path opacity="0.42029" d="M302.376 976.32C299.546 984.62 302.007 993.806 308.607 999.578L482.403 1151.58C486.904 1155.52 492.834 1157.42 498.784 1156.82L803.444 1126.49C808.391 1126 813.018 1123.82 816.545 1120.32L1011.26 926.844C1016.76 921.381 1018.91 913.392 1016.9 905.905L962.615 703.296C960.609 695.809 954.749 689.968 947.256 687.986L681.894 617.79C677.087 616.519 671.989 616.942 667.458 618.989L388.45 745.054C383.002 747.516 378.815 752.124 376.885 757.784L302.376 976.32Z" stroke="url(#paint28_linear_243_432)"/>
<path opacity="0.434783" d="M283.42 956.855C280.194 964.967 282.162 974.223 288.408 980.322L452.176 1140.2C456.462 1144.39 462.294 1146.61 468.278 1146.33L770.314 1132.42C775.304 1132.19 780.061 1130.24 783.776 1126.9L985.637 945.486C991.389 940.317 993.943 932.469 992.335 924.905L949.03 721.168C947.422 713.604 941.897 707.473 934.539 705.09L676.341 621.462C671.589 619.923 666.451 620.077 661.799 621.896L380.217 732.038C374.638 734.22 370.214 738.619 368 744.186L283.42 956.855Z" stroke="url(#paint29_linear_243_432)"/>
<path opacity="0.449275" d="M265.539 937.661C261.929 945.567 263.401 954.866 269.278 961.269L422.675 1128.4C426.734 1132.82 432.449 1135.36 438.452 1135.4L736.991 1137.55C742.009 1137.58 746.884 1135.87 750.78 1132.71L959.069 963.563C965.059 958.699 968.003 951.013 966.796 943.392L934.442 739.118C933.235 731.497 928.06 725.097 920.86 722.322L670.496 625.818C665.813 624.013 660.648 623.893 655.887 625.478L372.623 719.776C366.928 721.672 362.276 725.85 359.782 731.31L265.539 937.661Z" stroke="url(#paint30_linear_243_432)"/>
<path opacity="0.463768" d="M248.704 918.798C244.784 926.359 245.671 935.504 250.939 942.164L251.193 942.479L393.915 1116.21C397.733 1120.86 403.314 1123.71 409.319 1124.07L703.517 1141.87C708.55 1142.18 713.531 1140.71 717.6 1137.73L931.595 981.028C937.805 976.48 941.13 968.974 940.326 961.319L918.86 757.09C918.056 749.435 913.243 742.784 906.223 739.627L664.323 630.838C659.724 628.77 654.547 628.374 649.687 629.718L365.619 708.299C359.822 709.903 354.955 713.849 352.186 719.19L248.704 918.798Z" stroke="url(#paint31_linear_243_432)"/>
<path opacity="0.478261" d="M232.884 900.317C228.545 907.756 229.032 917.06 234.125 924.005L365.907 1103.68C369.472 1108.54 374.904 1111.7 380.892 1112.38L669.938 1145.39C674.972 1145.96 680.049 1144.75 684.281 1141.97L903.259 997.833C909.673 993.611 913.367 986.305 912.966 978.637L902.295 775.027C901.893 767.359 897.455 760.479 890.635 756.951L657.791 636.497C653.29 634.169 648.115 633.495 643.168 634.593L359.156 697.632C353.272 698.938 348.199 702.641 345.162 707.847L232.884 900.317Z" stroke="url(#paint32_linear_243_432)"/>
<path opacity="0.492754" d="M218.045 882.276C213.363 889.455 213.363 898.723 218.045 905.903L338.662 1090.86C341.961 1095.92 347.226 1099.37 353.182 1100.38L636.299 1148.1C641.321 1148.94 646.48 1147.99 650.868 1145.41L874.107 1013.94C880.707 1010.05 884.758 1002.96 884.758 995.302L884.758 792.877C884.758 785.218 880.707 778.129 874.107 774.242L650.868 642.772C646.48 640.188 641.321 639.235 636.299 640.082L353.182 687.802C347.226 688.806 341.961 692.255 338.662 697.315L218.045 882.276Z" stroke="url(#paint33_linear_243_432)"/>
<path opacity="0.507246" d="M204.153 864.723C199.144 871.628 198.661 880.831 202.921 888.221L312.185 1077.79C315.208 1083.04 320.29 1086.78 326.197 1088.1L602.647 1150C607.642 1151.12 612.871 1150.43 617.405 1148.06L844.189 1029.3C850.957 1025.75 855.353 1018.9 855.753 1011.27L866.27 810.586C866.67 802.956 863.015 795.681 856.654 791.449L643.526 649.636C639.265 646.801 634.137 645.569 629.052 646.159L347.646 678.827C341.633 679.525 336.188 682.711 332.634 687.611L204.153 864.723Z" stroke="url(#paint34_linear_243_432)"/>
<path opacity="0.521739" d="M191.166 847.708C185.847 854.322 184.889 863.437 188.717 871.013L286.482 1064.52C289.218 1069.93 294.102 1073.95 299.942 1075.59L569.025 1151.11C573.978 1152.5 579.265 1152.08 583.936 1149.92L813.555 1043.89C820.473 1040.69 825.199 1034.09 825.996 1026.51L846.849 828.104C847.646 820.525 844.395 813.086 838.292 808.523L635.737 657.064C631.617 653.983 626.533 652.472 621.399 652.802L342.495 670.727C336.441 671.116 330.829 674.03 327.028 678.757L191.166 847.708Z" stroke="url(#paint35_linear_243_432)"/>
<path opacity="0.536232" d="M179.044 831.273C173.432 837.583 172.007 846.583 175.394 854.319L261.555 1051.08C263.993 1056.65 268.662 1060.93 274.419 1062.89L535.478 1151.42C540.376 1153.09 545.707 1152.94 550.504 1151L782.256 1057.66C789.305 1054.82 794.347 1048.49 795.536 1040.98L826.517 845.379C827.706 837.873 824.868 830.293 819.041 825.414L627.476 665.024C623.51 661.704 618.486 659.915 613.315 659.982L337.673 663.515C331.595 663.593 325.83 666.225 321.79 670.768L179.044 831.273Z" stroke="url(#paint36_linear_243_432)"/>
<path opacity="0.550725" d="M167.746 815.463C161.858 821.456 159.974 830.318 162.915 838.188L237.402 1037.53C239.535 1043.23 243.975 1047.77 249.632 1050.04L502.05 1150.96C506.878 1152.89 512.24 1153.02 517.154 1151.32L750.347 1070.6C757.51 1068.12 762.851 1062.07 764.427 1054.66L805.3 862.366C806.876 854.952 804.455 847.256 798.921 842.078L618.719 673.489C614.922 669.937 609.972 667.871 604.776 667.671L333.131 657.201C327.044 656.967 321.139 659.311 316.87 663.657L167.746 815.463Z" stroke="url(#paint37_linear_243_432)"/>
<path opacity="0.565217" d="M157.223 800.314C151.078 805.979 148.747 814.678 151.236 822.657L214.021 1023.89C215.839 1029.72 220.037 1034.51 225.577 1037.07L468.782 1149.72C473.526 1151.92 478.905 1152.32 483.923 1150.86L717.883 1082.66C725.139 1080.55 730.765 1074.8 732.721 1067.5L783.225 879.017C785.181 871.717 783.183 863.925 777.957 858.465L609.441 682.424C605.826 678.647 600.966 676.308 595.759 675.839L328.812 651.794C322.731 651.246 316.702 653.295 312.213 657.433L157.223 800.314Z" stroke="url(#paint38_linear_243_432)"/>
<path opacity="0.57971" d="M147.428 785.868C141.045 791.193 138.279 799.705 140.313 807.765L191.405 1010.23C192.856 1015.97 196.6 1020.86 201.748 1023.77L202.25 1024.04L435.716 1147.73C440.361 1150.2 445.744 1150.88 450.858 1149.66L684.921 1093.84C692.251 1092.09 698.143 1086.66 700.472 1079.49L760.321 895.291C762.65 888.124 761.08 880.261 756.177 874.538L599.625 691.801C596.205 687.809 591.448 685.199 586.243 684.46L324.662 647.3C318.603 646.439 312.464 648.185 307.766 652.105L147.428 785.868Z" stroke="url(#paint39_linear_243_432)"/>
<path opacity="0.594203" d="M138.315 772.156C131.713 777.132 128.525 785.437 130.102 793.552L169.55 996.571C170.72 1002.59 174.39 1007.83 179.648 1010.99L402.894 1145.01C407.427 1147.73 412.799 1148.7 417.996 1147.73L651.516 1104.11C658.902 1102.74 665.043 1097.62 667.736 1090.61L736.623 911.149C739.316 904.134 738.174 896.224 733.608 890.256L589.252 701.59C586.04 697.392 581.4 694.516 576.211 693.505L320.628 643.722C314.608 642.55 308.374 643.989 303.477 647.68L138.315 772.156Z" stroke="url(#paint40_linear_243_432)"/>
<path opacity="0.608696" d="M129.83 759.204C123.242 763.678 119.662 771.396 120.462 779.278L120.553 780.041L148.442 982.961C149.279 989.05 152.667 994.496 157.76 997.937L370.354 1141.57C374.76 1144.54 380.108 1145.79 385.376 1145.07L617.726 1113.46C625.148 1112.45 631.519 1107.67 634.566 1100.83L712.162 926.543C715.208 919.7 714.497 911.768 710.281 905.576L578.304 711.752C575.312 707.357 570.805 704.218 565.644 702.935L316.655 641.054C310.69 639.572 304.376 640.697 299.291 644.15L129.83 759.204Z" stroke="url(#paint41_linear_243_432)"/>
<path opacity="0.623188" d="M121.924 747.046C114.944 751.298 110.957 759.122 111.62 767.269L128.071 969.442C128.57 975.582 131.665 981.218 136.578 984.935L338.133 1137.43C342.399 1140.65 347.708 1142.18 353.037 1141.73L583.608 1121.87C591.049 1121.23 597.632 1116.79 601.022 1110.14L686.975 941.446C690.365 934.792 690.082 926.86 686.228 920.465L566.767 722.256C564.006 717.675 559.646 714.28 554.528 712.726L312.69 639.295C306.795 637.505 300.417 638.315 295.156 641.519L121.924 747.046Z" stroke="url(#paint42_linear_243_432)"/>
<path opacity="0.637681" d="M114.544 735.7C107.404 739.58 103.042 747.135 103.252 755.258L108.422 956.051C108.581 962.224 111.371 968.034 116.089 972.018L306.269 1132.61C310.38 1136.08 315.637 1137.9 321.014 1137.7L549.223 1129.33C556.662 1129.06 563.438 1124.98 567.159 1118.53L661.1 955.82C664.822 949.374 664.967 941.466 661.484 934.887L554.629 733.067C552.111 728.312 547.911 724.666 542.849 722.842L308.682 638.437C302.873 636.343 296.445 636.833 291.02 639.782L114.544 735.7Z" stroke="url(#paint43_linear_243_432)"/>
<path opacity="0.652174" d="M107.634 725.189C100.356 728.692 95.6371 735.958 95.3968 744.032L89.4793 942.823C89.2951 949.009 91.7709 954.979 96.2789 959.219L274.796 1127.15C278.739 1130.86 283.929 1132.95 289.342 1133.02L514.626 1135.84C522.045 1135.93 528.993 1132.21 533.034 1125.99L634.574 969.633C638.615 963.41 639.184 955.551 636.082 948.812L541.877 744.151C539.613 739.234 535.588 735.344 530.595 733.25L304.576 638.47C298.869 636.076 292.408 636.242 286.832 638.927L107.634 725.189Z" stroke="url(#paint44_linear_243_432)"/>
<path opacity="0.666667" d="M101.14 715.525C93.9764 718.55 89.0058 725.177 88.0803 732.86L88.0036 733.607L71.2239 929.794C70.6953 935.975 72.8474 942.086 77.1317 946.573L243.746 1121.06C247.391 1124.88 252.301 1127.22 257.548 1127.67L258.056 1127.71L479.876 1141.39C487.256 1141.85 494.357 1138.5 498.704 1132.52L607.441 982.854C611.787 976.872 612.776 969.084 610.062 962.206L528.504 755.47C526.505 750.403 522.667 746.276 517.757 743.915L300.324 639.375C294.733 636.687 288.256 636.529 282.541 638.942L101.14 715.525Z" stroke="url(#paint45_linear_243_432)"/>
<path opacity="0.681159" d="M95.0096 706.73C87.7519 709.382 82.4795 715.696 81.1384 723.268L81.0207 724.005L53.638 917.003C52.7645 923.16 54.5836 929.395 58.6306 934.116L213.154 1114.38C216.722 1118.54 221.738 1121.2 227.186 1121.8L445.031 1146C452.354 1146.81 459.588 1143.84 464.225 1138.11L579.74 995.463C584.377 989.737 585.78 982.043 583.462 975.049L514.502 766.996C512.778 761.792 509.141 757.436 504.327 754.812L295.875 641.144C290.415 638.167 283.938 637.685 278.098 639.819L95.0096 706.73Z" stroke="url(#paint46_linear_243_432)"/>
<path opacity="0.695652" d="M89.1865 698.807C81.6189 701.159 75.944 707.461 74.3957 715.234L36.6989 904.478C35.4812 910.591 36.9603 916.933 40.7569 921.876L183.048 1107.14C186.409 1111.51 191.316 1114.44 196.763 1115.32L410.149 1149.65C417.397 1150.82 424.743 1148.23 429.656 1142.77L551.517 1007.43C556.429 1001.97 558.238 994.398 556.32 987.311L499.868 778.684C498.427 773.358 495.005 768.784 490.301 765.899L291.181 643.752C285.868 640.493 279.407 639.685 273.454 641.535L89.1865 698.807Z" stroke="url(#paint47_linear_243_432)"/>
<path opacity="0.710145" d="M83.6165 691.764C75.9936 693.73 70.0411 699.683 68.0753 707.305L20.3836 892.253C18.8236 898.304 19.9569 904.733 23.491 909.885L153.455 1099.36C156.597 1103.94 161.382 1107.14 166.816 1108.29L375.284 1152.37C382.441 1153.88 389.878 1151.67 395.05 1146.5L522.812 1018.74C527.984 1013.57 530.191 1006.13 528.678 998.973L484.6 790.505C483.451 785.071 480.254 780.286 475.673 777.144L286.196 647.18C281.044 643.646 274.615 642.513 268.564 644.073L83.6165 691.764Z" stroke="url(#paint48_linear_243_432)"/>
<path opacity="0.724638" d="M78.2452 685.605C70.5875 687.185 64.3787 692.776 62.007 700.226L4.66788 880.356C2.82741 886.138 3.50323 892.418 6.51132 897.668L6.80992 898.172L124.404 1091.09C127.315 1095.86 131.963 1099.32 137.371 1100.75L340.493 1154.16C347.541 1156.01 355.049 1154.19 360.464 1149.31L493.673 1029.37C499.088 1024.49 501.684 1017.22 500.578 1010.01L468.694 802.422C467.845 796.895 464.887 791.911 460.442 788.517L280.876 651.401C275.898 647.6 269.516 646.144 263.382 647.409L78.2452 685.605Z" stroke="url(#paint49_linear_243_432)"/>
<path opacity="0.73913" d="M73.0147 680.332C65.3428 681.527 58.9007 686.744 56.1361 694L-10.4763 868.816C-12.7121 874.684 -12.2868 881.234 -9.31175 886.764L95.9149 1082.35C98.583 1087.31 103.08 1091.03 108.45 1092.73L305.828 1155.03C312.75 1157.21 320.307 1155.78 325.948 1151.21L464.14 1039.31C469.782 1034.74 472.755 1027.65 472.056 1020.42L452.151 814.401C451.61 808.796 448.903 803.623 444.607 799.983L275.174 656.392C270.383 652.332 264.065 650.554 257.861 651.521L73.0147 680.332Z" stroke="url(#paint50_linear_243_432)"/>
<path opacity="0.753623" d="M67.8755 675.938C60.2097 676.753 53.5572 681.586 50.4137 688.625L-25.0736 857.66C-27.6402 863.408 -27.5749 869.988 -24.8954 875.684L68.0116 1073.18C70.4257 1078.31 74.759 1082.29 80.0779 1084.26L271.344 1155.01C278.125 1157.52 285.711 1156.47 291.56 1152.22L434.264 1048.54C439.93 1044.42 443.24 1037.83 443.178 1030.85L443.161 1030.18L434.976 826.407C434.748 820.741 432.304 815.39 428.17 811.509L269.051 662.12C264.462 657.811 258.223 655.716 251.963 656.381L67.8755 675.938Z" stroke="url(#paint51_linear_243_432)"/>
<path opacity="0.768116" d="M62.7729 672.421C55.1328 672.858 48.2924 677.3 44.7857 684.102L-39.1525 846.912C-42.0441 852.521 -42.3417 859.113 -39.9672 864.96L40.7149 1063.62C42.8643 1068.91 47.0202 1073.14 52.2754 1075.38L237.092 1154.11C243.716 1156.94 251.309 1156.28 257.347 1152.36L404.088 1057.06C410.126 1053.14 413.817 1046.47 413.933 1039.27L417.173 838.408C417.265 832.696 415.093 827.18 411.133 823.064L262.468 668.556C258.092 664.009 251.948 661.6 245.648 661.961L62.7729 672.421Z" stroke="url(#paint52_linear_243_432)"/>
<path opacity="0.782609" d="M57.6544 669.766C50.0596 669.831 43.0557 673.874 39.2023 680.419L-52.7442 836.591C-55.9539 842.043 -56.6152 848.627 -54.5543 854.608L14.0402 1053.7C15.9148 1059.14 19.8806 1063.61 25.0593 1066.11L203.12 1152.37C209.572 1155.49 217.153 1155.22 223.361 1151.63L373.657 1064.86C379.865 1061.27 383.894 1054.85 384.414 1047.7L398.748 850.365C399.165 844.626 397.277 838.957 393.503 834.614L255.385 675.665C251.235 670.889 245.203 668.17 238.876 668.224L57.6544 669.766Z" stroke="url(#paint53_linear_243_432)"/>
<path opacity="0.797101" d="M52.4684 667.966C44.938 667.664 37.794 671.304 33.6119 677.574L-65.8792 826.723C-69.2888 831.834 -70.3577 838.146 -68.84 844.081L-68.6858 844.654L-11.9966 1043.46C-10.4066 1049.04 -6.64437 1053.74 -1.55446 1056.51L169.476 1149.79C175.741 1153.21 183.29 1153.32 189.649 1150.08L343.016 1071.93C349.375 1068.69 353.726 1062.52 354.644 1055.45L379.708 862.252C380.454 856.502 378.86 850.694 375.284 846.13L247.769 683.413C243.856 678.421 237.949 675.397 231.612 675.143L52.4684 667.966Z" stroke="url(#paint54_linear_243_432)"/>
<path opacity="0.811594" d="M47.166 667C39.7187 666.339 32.4576 669.572 27.9655 675.548L-78.5872 817.321C-82.4077 822.404 -83.7972 828.911 -82.3867 835.111L-37.382 1032.94C-36.0857 1038.64 -32.5388 1043.57 -27.5498 1046.61L136.206 1146.42C142.272 1150.12 149.768 1150.61 156.258 1147.72L312.211 1078.28C318.701 1075.39 323.358 1069.5 324.669 1062.52L360.066 874.031C361.144 868.289 359.853 862.355 356.486 857.579L239.585 691.76C235.922 686.563 230.156 683.242 223.822 682.68L47.166 667Z" stroke="url(#paint55_linear_243_432)"/>
<path opacity="0.826087" d="M41.6995 666.854C34.3532 665.842 27.0005 668.665 22.2183 674.333L-90.9007 808.406C-95.0118 813.278 -96.7633 819.717 -95.6876 826.001L-62.1043 1022.18C-61.1106 1027.99 -57.7924 1033.13 -52.9165 1036.44L103.353 1142.29C109.208 1146.26 116.631 1147.11 123.233 1144.58L281.287 1083.91C287.888 1081.37 292.834 1075.77 294.531 1068.91L339.831 885.676C341.244 879.959 340.265 873.912 337.12 868.934L230.807 700.671C227.401 695.282 221.791 691.669 215.475 690.799L41.6995 666.854Z" stroke="url(#paint56_linear_243_432)"/>
<path opacity="0.84058" d="M36.0214 667.507C28.7935 666.152 21.3727 668.563 16.3214 673.908L-102.852 799.989C-107.243 804.634 -109.354 810.984 -108.618 817.334L-86.156 1011.22C-85.4727 1017.12 -82.3949 1022.48 -77.6445 1026.04L70.9602 1137.43C76.5906 1141.65 83.9222 1142.87 90.6144 1140.69L250.287 1088.81C256.979 1086.64 262.195 1081.34 264.269 1074.62L319.018 897.153C320.713 891.657 320.147 885.72 317.461 880.652L317.195 880.164L221.403 710.103C218.266 704.534 212.826 700.638 206.543 699.46L36.0214 667.507Z" stroke="url(#paint57_linear_243_432)"/>
<path opacity="0.855072" d="M30.0856 668.932C22.9933 667.246 15.5283 669.246 10.2295 674.253L-114.474 792.085C-119.132 796.487 -121.598 802.728 -121.207 809.124L-109.532 1000.1C-109.166 1006.07 -106.341 1011.63 -101.728 1015.44L39.0628 1131.87C44.458 1136.33 51.6798 1137.91 58.4423 1136.1L219.254 1093.01C226.016 1091.19 231.483 1086.22 233.925 1079.66L297.639 908.435C299.727 902.825 299.396 896.6 296.725 891.243L211.349 720.016C208.489 714.281 203.233 710.109 196.998 708.627L30.0856 668.932Z" stroke="url(#paint58_linear_243_432)"/>
<path opacity="0.869565" d="M23.8514 671.107C16.9104 669.099 9.42489 670.69 3.90067 675.348L-125.8 784.705C-130.712 788.847 -133.528 794.959 -133.485 801.384L-132.226 988.855C-132.186 994.892 -129.623 1000.64 -125.159 1004.7L7.70043 1125.66C12.8505 1130.35 19.9431 1132.27 26.7555 1130.82L188.229 1096.5C195.042 1095.05 200.74 1090.41 203.538 1084.03L275.712 919.494C278.138 913.965 278.142 907.674 275.723 902.142L200.623 730.367C198.049 724.48 192.989 720.042 186.817 718.256L23.8514 671.107Z" stroke="url(#paint59_linear_243_432)"/>
<path opacity="0.884058" d="M17.2755 674C10.5012 671.682 3.01865 672.868 -2.70782 677.165L-136.862 777.852C-142.015 781.72 -145.175 787.683 -145.483 794.118L-154.238 977.527C-154.528 983.61 -152.241 989.533 -147.937 993.842L-23.0962 1118.83C-18.2007 1123.73 -11.2535 1125.99 -4.41161 1124.9L157.256 1099.3C164.098 1098.21 170.007 1093.92 173.148 1087.75L253.255 930.299C256.017 924.872 256.362 918.531 254.206 912.836L189.204 741.109C186.923 735.084 182.075 730.389 175.979 728.303L17.2755 674Z" stroke="url(#paint60_linear_243_432)"/>
<path opacity="0.898551" d="M10.3222 677.581C3.72929 674.965 -3.72725 675.749 -9.63234 679.678L-147.695 771.538C-153.073 775.116 -156.569 780.911 -157.229 787.336L-175.566 966.156C-176.193 972.268 -174.191 978.358 -170.059 982.905L-53.2929 1111.42C-48.6606 1116.52 -41.8761 1119.11 -35.0253 1118.39L126.373 1101.42C133.224 1100.7 139.322 1096.76 142.793 1090.81L230.287 940.827C233.383 935.52 234.076 929.147 232.192 923.299L177.077 752.2C175.096 746.051 170.471 741.11 164.466 738.728L10.3222 677.581Z" stroke="url(#paint61_linear_243_432)"/>
<path opacity="0.913043" d="M2.95213 681.817C-3.44541 678.918 -10.8528 679.306 -16.9122 682.858L-158.331 765.764C-163.918 769.04 -167.744 774.647 -168.755 781.044L-196.216 954.781C-197.184 960.905 -195.476 967.15 -191.528 971.93L-82.8638 1103.48C-78.5023 1108.76 -71.8971 1111.67 -65.0579 1111.31L95.6191 1102.89C102.458 1102.53 108.724 1098.95 112.51 1093.24L206.827 951.054C210.254 945.887 211.3 939.497 209.697 933.508L164.226 763.594C162.552 757.337 158.161 752.16 152.262 749.487L2.95213 681.817Z" stroke="url(#paint62_linear_243_432)"/>
<path opacity="0.927536" d="M-4.8667 686.673C-11.0563 683.504 -18.3929 683.504 -24.5825 686.673L-168.803 760.531C-174.583 763.491 -178.728 768.892 -180.09 775.242L-216.19 943.438C-217.503 949.557 -216.102 955.945 -212.347 960.952L-111.783 1095.05C-107.698 1100.5 -101.288 1103.71 -94.48 1103.71L65.0308 1103.71C71.8382 1103.71 78.2484 1100.5 82.3325 1095.05L182.897 960.952C186.652 955.945 188.054 949.557 186.741 943.438L150.64 775.242C149.277 768.892 145.133 763.491 139.353 760.531L-4.8667 686.673Z" stroke="url(#paint63_linear_243_432)"/>
<path opacity="0.942029" d="M-13.1689 692.115C-18.9519 688.797 -25.9307 688.337 -32.0842 690.841L-32.6773 691.093L-179.146 755.844C-185.101 758.477 -189.553 763.653 -191.266 769.935L-235.499 932.171C-237.161 938.266 -236.074 944.784 -232.523 950.011L-140.028 1086.19C-136.227 1091.78 -130.026 1095.28 -123.27 1095.63L34.641 1103.91C41.3968 1104.26 47.9293 1101.43 52.2946 1096.27L158.518 970.505C162.595 965.678 164.357 959.309 163.341 953.073L136.31 787.103C135.263 780.676 131.376 775.063 125.728 771.822L-13.1689 692.115Z" stroke="url(#paint64_linear_243_432)"/>
<path opacity="0.956522" d="M-21.9808 698.104C-27.7192 694.438 -34.85 693.688 -41.2253 696.081L-189.389 751.699C-195.501 753.993 -200.251 758.926 -202.311 765.122L-254.148 921.014C-256.161 927.069 -255.398 933.704 -252.063 939.143L-167.581 1076.92C-164.067 1082.65 -158.089 1086.42 -151.404 1087.13L4.48782 1103.51C11.1723 1104.21 17.8032 1101.77 22.4312 1096.89L133.714 979.69C137.97 975.207 140.098 969.126 139.581 962.985L139.523 962.391L121.229 799.127C120.502 792.639 116.883 786.826 111.381 783.311L-21.9808 698.104Z" stroke="url(#paint65_linear_243_432)"/>
<path opacity="0.971014" d="M-31.329 704.599C-36.8262 700.708 -43.8227 699.6 -50.2533 701.602L-199.565 748.092C-205.816 750.039 -210.848 754.711 -213.252 760.8L-272.15 910.005C-274.516 916 -274.086 922.738 -270.975 928.383L-194.422 1067.31C-191.2 1073.16 -185.458 1077.19 -178.864 1078.23L-25.3993 1102.54C-18.8052 1103.58 -12.0977 1101.53 -7.22645 1096.96L108.511 988.488C113.213 984.081 115.705 977.805 115.307 971.373L105.399 811.269C104.995 804.735 101.651 798.736 96.308 794.954L-31.329 704.599Z" stroke="url(#paint66_linear_243_432)"/>
<path opacity="0.985507" d="M-41.2379 711.559C-46.4848 707.459 -53.3283 706.005 -59.7893 707.616L-209.705 745.016C-216.074 746.605 -221.377 751 -224.12 756.964L-289.518 899.178C-292.239 905.094 -292.149 911.921 -289.274 917.764L-220.541 1057.4C-217.614 1063.35 -212.12 1067.62 -205.635 1069L-54.9897 1101.02C-48.5051 1102.4 -41.7465 1100.73 -36.6526 1096.48L82.9317 996.878C87.9351 992.711 90.7938 986.51 90.7147 979.999L88.8139 823.48C88.7342 816.917 85.6773 810.744 80.5054 806.702L-41.2379 711.559Z" stroke="url(#paint67_linear_243_432)"/>
<path d="M-51.7276 718.945C-56.5602 714.786 -62.9727 712.978 -69.248 713.981L-69.8547 714.088L-219.841 742.466C-226.308 743.689 -231.865 747.792 -234.941 753.61L-306.268 888.568C-309.247 894.205 -309.583 900.859 -307.208 906.753L-306.97 907.322L-245.927 1047.23C-243.295 1053.26 -238.06 1057.77 -231.703 1059.47L-84.2564 1098.98C-77.8993 1100.69 -71.1122 1099.4 -65.8169 1095.49L57.0026 1004.85C62.2979 1000.94 65.5253 994.833 65.7715 988.256L71.4796 835.715C71.718 829.344 69.1327 823.203 64.4355 818.923L63.9747 818.514L-51.7276 718.945Z" stroke="url(#paint68_linear_243_432)"/>
</g>
<defs>
<filter id="filter0_f_243_432" x="764" y="-69" width="846" height="846" filterUnits="userSpaceOnUse" color-interpolation-filters="sRGB">
<feFlood flood-opacity="0" result="BackgroundImageFix"/>
<feBlend mode="normal" in="SourceGraphic" in2="BackgroundImageFix" result="shape"/>
<feGaussianBlur stdDeviation="100" result="effect1_foregroundBlur_243_432"/>
</filter>
<filter id="filter1_f_243_432" x="-170" y="-110" width="864" height="862" filterUnits="userSpaceOnUse" color-interpolation-filters="sRGB">
<feFlood flood-opacity="0" result="BackgroundImageFix"/>
<feBlend mode="normal" in="SourceGraphic" in2="BackgroundImageFix" result="shape"/>
<feGaussianBlur stdDeviation="100" result="effect1_foregroundBlur_243_432"/>
</filter>
<filter id="filter2_f_243_432" x="227" y="-250" width="967" height="967" filterUnits="userSpaceOnUse" color-interpolation-filters="sRGB">
<feFlood flood-opacity="0" result="BackgroundImageFix"/>
<feBlend mode="normal" in="SourceGraphic" in2="BackgroundImageFix" result="shape"/>
<feGaussianBlur stdDeviation="125" result="effect1_foregroundBlur_243_432"/>
</filter>
<linearGradient id="paint0_linear_243_432" x1="1281.34" y1="1378.78" x2="1118.58" y2="351.208" gradientUnits="userSpaceOnUse">
<stop stop-color="#FF1CF7"/>
<stop offset="1" stop-color="#00F0FF"/>
</linearGradient>
<linearGradient id="paint1_linear_243_432" x1="1235.52" y1="1378.12" x2="1127.73" y2="352.576" gradientUnits="userSpaceOnUse">
<stop stop-color="#FF1CF7"/>
<stop offset="1" stop-color="#00F0FF"/>
</linearGradient>
<linearGradient id="paint2_linear_243_432" x1="1190.02" y1="1376.06" x2="1136.54" y2="355.449" gradientUnits="userSpaceOnUse">
<stop stop-color="#FF1CF7"/>
<stop offset="1" stop-color="#00F0FF"/>
</linearGradient>
<linearGradient id="paint3_linear_243_432" x1="1144.92" y1="1372.63" x2="1144.92" y2="359.801" gradientUnits="userSpaceOnUse">
<stop stop-color="#FF1CF7"/>
<stop offset="1" stop-color="#00F0FF"/>
</linearGradient>
<linearGradient id="paint4_linear_243_432" x1="1100.28" y1="1367.86" x2="1152.81" y2="365.59" gradientUnits="userSpaceOnUse">
<stop stop-color="#FF1CF7"/>
<stop offset="1" stop-color="#00F0FF"/>
</linearGradient>
<linearGradient id="paint5_linear_243_432" x1="1056.17" y1="1361.79" x2="1160.12" y2="372.775" gradientUnits="userSpaceOnUse">
<stop stop-color="#FF1CF7"/>
<stop offset="1" stop-color="#00F0FF"/>
</linearGradient>
<linearGradient id="paint6_linear_243_432" x1="1012.66" y1="1354.47" x2="1166.79" y2="381.315" gradientUnits="userSpaceOnUse">
<stop stop-color="#FF1CF7"/>
<stop offset="1" stop-color="#00F0FF"/>
</linearGradient>
<linearGradient id="paint7_linear_243_432" x1="969.806" y1="1345.93" x2="1172.75" y2="391.155" gradientUnits="userSpaceOnUse">
<stop stop-color="#FF1CF7"/>
<stop offset="1" stop-color="#00F0FF"/>
</linearGradient>
<linearGradient id="paint8_linear_243_432" x1="927.677" y1="1336.22" x2="1177.93" y2="402.25" gradientUnits="userSpaceOnUse">
<stop stop-color="#FF1CF7"/>
<stop offset="1" stop-color="#00F0FF"/>
</linearGradient>
<linearGradient id="paint9_linear_243_432" x1="886.325" y1="1325.41" x2="1182.28" y2="414.544" gradientUnits="userSpaceOnUse">
<stop stop-color="#FF1CF7"/>
<stop offset="1" stop-color="#00F0FF"/>
</linearGradient>
<linearGradient id="paint10_linear_243_432" x1="845.806" y1="1313.53" x2="1185.74" y2="427.975" gradientUnits="userSpaceOnUse">
<stop stop-color="#FF1CF7"/>
<stop offset="1" stop-color="#00F0FF"/>
</linearGradient>
<linearGradient id="paint11_linear_243_432" x1="806.167" y1="1300.64" x2="1188.24" y2="442.484" gradientUnits="userSpaceOnUse">
<stop stop-color="#FF1CF7"/>
<stop offset="1" stop-color="#00F0FF"/>
</linearGradient>
<linearGradient id="paint12_linear_243_432" x1="767.456" y1="1286.82" x2="1189.75" y2="458.012" gradientUnits="userSpaceOnUse">
<stop stop-color="#FF1CF7"/>
<stop offset="1" stop-color="#00F0FF"/>
</linearGradient>
<linearGradient id="paint13_linear_243_432" x1="729.716" y1="1272.1" x2="1190.22" y2="474.488" gradientUnits="userSpaceOnUse">
<stop stop-color="#FF1CF7"/>
<stop offset="1" stop-color="#00F0FF"/>
</linearGradient>
<linearGradient id="paint14_linear_243_432" x1="692.985" y1="1256.57" x2="1189.6" y2="491.85" gradientUnits="userSpaceOnUse">
<stop stop-color="#FF1CF7"/>
<stop offset="1" stop-color="#00F0FF"/>
</linearGradient>
<linearGradient id="paint15_linear_243_432" x1="657.299" y1="1240.28" x2="1187.86" y2="510.026" gradientUnits="userSpaceOnUse">
<stop stop-color="#FF1CF7"/>
<stop offset="1" stop-color="#00F0FF"/>
</linearGradient>
<linearGradient id="paint16_linear_243_432" x1="622.69" y1="1223.29" x2="1184.96" y2="528.946" gradientUnits="userSpaceOnUse">
<stop stop-color="#FF1CF7"/>
<stop offset="1" stop-color="#00F0FF"/>
</linearGradient>
<linearGradient id="paint17_linear_243_432" x1="589.181" y1="1205.68" x2="1180.88" y2="548.538" gradientUnits="userSpaceOnUse">
<stop stop-color="#FF1CF7"/>
<stop offset="1" stop-color="#00F0FF"/>
</linearGradient>
<linearGradient id="paint18_linear_243_432" x1="556.799" y1="1187.51" x2="1175.58" y2="568.729" gradientUnits="userSpaceOnUse">
<stop stop-color="#FF1CF7"/>
<stop offset="1" stop-color="#00F0FF"/>
</linearGradient>
<linearGradient id="paint19_linear_243_432" x1="525.561" y1="1168.86" x2="1169.06" y2="589.449" gradientUnits="userSpaceOnUse">
<stop stop-color="#FF1CF7"/>
<stop offset="1" stop-color="#00F0FF"/>
</linearGradient>
<linearGradient id="paint20_linear_243_432" x1="495.485" y1="1149.78" x2="1161.29" y2="610.621" gradientUnits="userSpaceOnUse">
<stop stop-color="#FF1CF7"/>
<stop offset="1" stop-color="#00F0FF"/>
</linearGradient>
<linearGradient id="paint21_linear_243_432" x1="466.578" y1="1130.35" x2="1152.26" y2="632.17" gradientUnits="userSpaceOnUse">
<stop stop-color="#FF1CF7"/>
<stop offset="1" stop-color="#00F0FF"/>
</linearGradient>
<linearGradient id="paint22_linear_243_432" x1="438.849" y1="1110.63" x2="1141.96" y2="654.026" gradientUnits="userSpaceOnUse">
<stop stop-color="#FF1CF7"/>
<stop offset="1" stop-color="#00F0FF"/>
</linearGradient>
<linearGradient id="paint23_linear_243_432" x1="412.302" y1="1090.7" x2="1130.39" y2="676.111" gradientUnits="userSpaceOnUse">
<stop stop-color="#FF1CF7"/>
<stop offset="1" stop-color="#00F0FF"/>
</linearGradient>
<linearGradient id="paint24_linear_243_432" x1="386.936" y1="1070.63" x2="1117.56" y2="698.355" gradientUnits="userSpaceOnUse">
<stop stop-color="#FF1CF7"/>
<stop offset="1" stop-color="#00F0FF"/>
</linearGradient>
<linearGradient id="paint25_linear_243_432" x1="362.744" y1="1050.47" x2="1103.46" y2="720.683" gradientUnits="userSpaceOnUse">
<stop stop-color="#FF1CF7"/>
<stop offset="1" stop-color="#00F0FF"/>
</linearGradient>
<linearGradient id="paint26_linear_243_432" x1="339.719" y1="1030.31" x2="1088.11" y2="743.025" gradientUnits="userSpaceOnUse">
<stop stop-color="#FF1CF7"/>
<stop offset="1" stop-color="#00F0FF"/>
</linearGradient>
<linearGradient id="paint27_linear_243_432" x1="317.849" y1="1010.19" x2="1071.52" y2="765.311" gradientUnits="userSpaceOnUse">
<stop stop-color="#FF1CF7"/>
<stop offset="1" stop-color="#00F0FF"/>
</linearGradient>
<linearGradient id="paint28_linear_243_432" x1="297.117" y1="990.193" x2="1053.7" y2="787.468" gradientUnits="userSpaceOnUse">
<stop stop-color="#FF1CF7"/>
<stop offset="1" stop-color="#00F0FF"/>
</linearGradient>
<linearGradient id="paint29_linear_243_432" x1="277.505" y1="970.376" x2="1034.68" y2="809.434" gradientUnits="userSpaceOnUse">
<stop stop-color="#FF1CF7"/>
<stop offset="1" stop-color="#00F0FF"/>
</linearGradient>
<linearGradient id="paint30_linear_243_432" x1="258.989" y1="950.798" x2="1014.48" y2="831.141" gradientUnits="userSpaceOnUse">
<stop stop-color="#FF1CF7"/>
<stop offset="1" stop-color="#00F0FF"/>
</linearGradient>
<linearGradient id="paint31_linear_243_432" x1="241.544" y1="931.522" x2="993.126" y2="852.527" gradientUnits="userSpaceOnUse">
<stop stop-color="#FF1CF7"/>
<stop offset="1" stop-color="#00F0FF"/>
</linearGradient>
<linearGradient id="paint32_linear_243_432" x1="225.14" y1="912.6" x2="970.656" y2="873.529" gradientUnits="userSpaceOnUse">
<stop stop-color="#FF1CF7"/>
<stop offset="1" stop-color="#00F0FF"/>
</linearGradient>
<linearGradient id="paint33_linear_243_432" x1="209.745" y1="894.089" x2="947.101" y2="894.089" gradientUnits="userSpaceOnUse">
<stop stop-color="#FF1CF7"/>
<stop offset="1" stop-color="#00F0FF"/>
</linearGradient>
<linearGradient id="paint34_linear_243_432" x1="195.323" y1="876.042" x2="922.5" y2="914.151" gradientUnits="userSpaceOnUse">
<stop stop-color="#FF1CF7"/>
<stop offset="1" stop-color="#00F0FF"/>
</linearGradient>
<linearGradient id="paint35_linear_243_432" x1="181.839" y1="858.508" x2="896.891" y2="933.664" gradientUnits="userSpaceOnUse">
<stop stop-color="#FF1CF7"/>
<stop offset="1" stop-color="#00F0FF"/>
</linearGradient>
<linearGradient id="paint36_linear_243_432" x1="169.249" y1="841.534" x2="870.319" y2="952.573" gradientUnits="userSpaceOnUse">
<stop stop-color="#FF1CF7"/>
<stop offset="1" stop-color="#00F0FF"/>
</linearGradient>
<linearGradient id="paint37_linear_243_432" x1="157.515" y1="825.165" x2="842.831" y2="970.833" gradientUnits="userSpaceOnUse">
<stop stop-color="#FF1CF7"/>
<stop offset="1" stop-color="#00F0FF"/>
</linearGradient>
<linearGradient id="paint38_linear_243_432" x1="146.588" y1="809.438" x2="814.472" y2="988.397" gradientUnits="userSpaceOnUse">
<stop stop-color="#FF1CF7"/>
<stop offset="1" stop-color="#00F0FF"/>
</linearGradient>
<linearGradient id="paint39_linear_243_432" x1="136.424" y1="794.397" x2="785.293" y2="1005.23" gradientUnits="userSpaceOnUse">
<stop stop-color="#FF1CF7"/>
<stop offset="1" stop-color="#00F0FF"/>
</linearGradient>
<linearGradient id="paint40_linear_243_432" x1="126.974" y1="780.077" x2="755.348" y2="1021.29" gradientUnits="userSpaceOnUse">
<stop stop-color="#FF1CF7"/>
<stop offset="1" stop-color="#00F0FF"/>
</linearGradient>
<linearGradient id="paint41_linear_243_432" x1="118.189" y1="766.505" x2="724.688" y2="1036.54" gradientUnits="userSpaceOnUse">
<stop stop-color="#FF1CF7"/>
<stop offset="1" stop-color="#00F0FF"/>
</linearGradient>
<linearGradient id="paint42_linear_243_432" x1="110.016" y1="753.714" x2="693.37" y2="1050.95" gradientUnits="userSpaceOnUse">
<stop stop-color="#FF1CF7"/>
<stop offset="1" stop-color="#00F0FF"/>
</linearGradient>
<linearGradient id="paint43_linear_243_432" x1="102.403" y1="741.729" x2="661.45" y2="1064.5" gradientUnits="userSpaceOnUse">
<stop stop-color="#FF1CF7"/>
<stop offset="1" stop-color="#00F0FF"/>
</linearGradient>
<linearGradient id="paint44_linear_243_432" x1="95.2973" y1="730.572" x2="628.984" y2="1077.15" gradientUnits="userSpaceOnUse">
<stop stop-color="#FF1CF7"/>
<stop offset="1" stop-color="#00F0FF"/>
</linearGradient>
<linearGradient id="paint45_linear_243_432" x1="88.6435" y1="720.258" x2="596.032" y2="1088.9" gradientUnits="userSpaceOnUse">
<stop stop-color="#FF1CF7"/>
<stop offset="1" stop-color="#00F0FF"/>
</linearGradient>
<linearGradient id="paint46_linear_243_432" x1="82.3875" y1="710.81" x2="562.651" y2="1099.72" gradientUnits="userSpaceOnUse">
<stop stop-color="#FF1CF7"/>
<stop offset="1" stop-color="#00F0FF"/>
</linearGradient>
<linearGradient id="paint47_linear_243_432" x1="76.4751" y1="702.234" x2="528.903" y2="1109.6" gradientUnits="userSpaceOnUse">
<stop stop-color="#FF1CF7"/>
<stop offset="1" stop-color="#00F0FF"/>
</linearGradient>
<linearGradient id="paint48_linear_243_432" x1="70.8506" y1="694.54" x2="494.845" y2="1118.53" gradientUnits="userSpaceOnUse">
<stop stop-color="#FF1CF7"/>
<stop offset="1" stop-color="#00F0FF"/>
</linearGradient>
<linearGradient id="paint49_linear_243_432" x1="65.4593" y1="687.733" x2="460.538" y2="1126.51" gradientUnits="userSpaceOnUse">
<stop stop-color="#FF1CF7"/>
<stop offset="1" stop-color="#00F0FF"/>
</linearGradient>
<linearGradient id="paint50_linear_243_432" x1="60.2434" y1="681.816" x2="426.038" y2="1133.53" gradientUnits="userSpaceOnUse">
<stop stop-color="#FF1CF7"/>
<stop offset="1" stop-color="#00F0FF"/>
</linearGradient>
<linearGradient id="paint51_linear_243_432" x1="55.1523" y1="676.787" x2="391.407" y2="1139.6" gradientUnits="userSpaceOnUse">
<stop stop-color="#FF1CF7"/>
<stop offset="1" stop-color="#00F0FF"/>
</linearGradient>
<linearGradient id="paint52_linear_243_432" x1="50.131" y1="672.643" x2="356.702" y2="1144.72" gradientUnits="userSpaceOnUse">
<stop stop-color="#FF1CF7"/>
<stop offset="1" stop-color="#00F0FF"/>
</linearGradient>
<linearGradient id="paint53_linear_243_432" x1="45.1257" y1="669.372" x2="321.979" y2="1148.9" gradientUnits="userSpaceOnUse">
<stop stop-color="#FF1CF7"/>
<stop offset="1" stop-color="#00F0FF"/>
</linearGradient>
<linearGradient id="paint54_linear_243_432" x1="40.0844" y1="666.969" x2="287.293" y2="1152.14" gradientUnits="userSpaceOnUse">
<stop stop-color="#FF1CF7"/>
<stop offset="1" stop-color="#00F0FF"/>
</linearGradient>
<linearGradient id="paint55_linear_243_432" x1="34.9572" y1="665.414" x2="252.7" y2="1154.47" gradientUnits="userSpaceOnUse">
<stop stop-color="#FF1CF7"/>
<stop offset="1" stop-color="#00F0FF"/>
</linearGradient>
<linearGradient id="paint56_linear_243_432" x1="29.6949" y1="664.696" x2="218.253" y2="1155.91" gradientUnits="userSpaceOnUse">
<stop stop-color="#FF1CF7"/>
<stop offset="1" stop-color="#00F0FF"/>
</linearGradient>
<linearGradient id="paint57_linear_243_432" x1="24.2494" y1="664.792" x2="184.004" y2="1156.47" gradientUnits="userSpaceOnUse">
<stop stop-color="#FF1CF7"/>
<stop offset="1" stop-color="#00F0FF"/>
</linearGradient>
<linearGradient id="paint58_linear_243_432" x1="18.5736" y1="665.681" x2="150" y2="1156.17" gradientUnits="userSpaceOnUse">
<stop stop-color="#FF1CF7"/>
<stop offset="1" stop-color="#00F0FF"/>
</linearGradient>
<linearGradient id="paint59_linear_243_432" x1="12.624" y1="667.339" x2="116.291" y2="1155.05" gradientUnits="userSpaceOnUse">
<stop stop-color="#FF1CF7"/>
<stop offset="1" stop-color="#00F0FF"/>
</linearGradient>
<linearGradient id="paint60_linear_243_432" x1="6.35804" y1="669.736" x2="82.9215" y2="1153.14" gradientUnits="userSpaceOnUse">
<stop stop-color="#FF1CF7"/>
<stop offset="1" stop-color="#00F0FF"/>
</linearGradient>
<linearGradient id="paint61_linear_243_432" x1="-0.263239" y1="672.844" x2="49.9361" y2="1150.46" gradientUnits="userSpaceOnUse">
<stop stop-color="#FF1CF7"/>
<stop offset="1" stop-color="#00F0FF"/>
</linearGradient>
<linearGradient id="paint62_linear_243_432" x1="-7.27908" y1="676.632" x2="17.3745" y2="1147.05" gradientUnits="userSpaceOnUse">
<stop stop-color="#FF1CF7"/>
<stop offset="1" stop-color="#00F0FF"/>
</linearGradient>
<linearGradient id="paint63_linear_243_432" x1="-14.725" y1="681.063" x2="-14.725" y2="1142.94" gradientUnits="userSpaceOnUse">
<stop stop-color="#FF1CF7"/>
<stop offset="1" stop-color="#00F0FF"/>
</linearGradient>
<linearGradient id="paint64_linear_243_432" x1="-22.6353" y1="686.107" x2="-46.3277" y2="1138.18" gradientUnits="userSpaceOnUse">
<stop stop-color="#FF1CF7"/>
<stop offset="1" stop-color="#00F0FF"/>
</linearGradient>
<linearGradient id="paint65_linear_243_432" x1="-31.0389" y1="691.724" x2="-77.399" y2="1132.81" gradientUnits="userSpaceOnUse">
<stop stop-color="#FF1CF7"/>
<stop offset="1" stop-color="#00F0FF"/>
</linearGradient>
<linearGradient id="paint66_linear_243_432" x1="-39.9635" y1="697.875" x2="-107.908" y2="1126.86" gradientUnits="userSpaceOnUse">
<stop stop-color="#FF1CF7"/>
<stop offset="1" stop-color="#00F0FF"/>
</linearGradient>
<linearGradient id="paint67_linear_243_432" x1="-49.4361" y1="704.519" x2="-137.83" y2="1120.38" gradientUnits="userSpaceOnUse">
<stop stop-color="#FF1CF7"/>
<stop offset="1" stop-color="#00F0FF"/>
</linearGradient>
<linearGradient id="paint68_linear_243_432" x1="-59.4782" y1="711.615" x2="-167.139" y2="1113.41" gradientUnits="userSpaceOnUse">
<stop stop-color="#FF1CF7"/>
<stop offset="1" stop-color="#00F0FF"/>
</linearGradient>
</defs>
</svg>
